<svg width="372" height="76" viewBox="0 0 372 76" fill="none" xmlns="http://www.w3.org/2000/svg">
<path d="M41.5536 19.376C43.4096 20.24 44.8496 21.376 45.8736 22.784C46.9296 24.16 47.4576 25.76 47.4576 27.584C47.4576 31.168 46.2736 33.808 43.9056 35.504C41.5696 37.168 38.6416 38 35.1216 38H23.3616V2.672H33.7296C37.4736 2.672 40.4176 3.44 42.5616 4.976C44.7056 6.48 45.7776 8.672 45.7776 11.552C45.7776 13.312 45.4096 14.864 44.6736 16.208C43.9376 17.52 42.8976 18.576 41.5536 19.376ZM30.3216 17.12H34.5456C35.8256 17.12 36.8176 16.736 37.5216 15.968C38.2256 15.168 38.5776 14.192 38.5776 13.04C38.5776 11.856 38.1776 10.96 37.3776 10.352C36.5776 9.712 35.4736 9.392 34.0656 9.392H30.3216V17.12ZM34.7856 31.52C36.4176 31.52 37.7296 31.2 38.7216 30.56C39.7456 29.888 40.2576 28.896 40.2576 27.584C40.2576 25.088 38.2736 23.84 34.3056 23.84H30.3216V31.52H34.7856ZM88.9517 38H81.9917V23.648H66.1997V38H59.2397V2.672H66.1997V16.928H81.9917V2.672H88.9517V38ZM121.908 38L114.468 26.768H109.812V38H102.852V2.672H113.556C117.94 2.672 121.332 3.744 123.732 5.888C126.164 8 127.38 10.896 127.38 14.576C127.38 16.752 126.916 18.8 125.988 20.72C125.092 22.608 123.7 24.096 121.812 25.184L130.02 38H121.908ZM109.812 20.048H114.756C116.644 20.048 118.02 19.504 118.884 18.416C119.748 17.296 120.18 16.096 120.18 14.816C120.18 13.536 119.812 12.32 119.076 11.168C118.34 9.984 116.916 9.392 114.804 9.392H109.812V20.048ZM137.18 20.384C137.18 17.184 137.98 14.192 139.58 11.408C141.212 8.624 143.404 6.416 146.156 4.784C148.94 3.12 151.948 2.288 155.18 2.288C158.412 2.288 161.404 3.12 164.156 4.784C166.94 6.416 169.148 8.624 170.78 11.408C172.444 14.192 173.276 17.184 173.276 20.384C173.276 23.648 172.444 26.656 170.78 29.408C169.148 32.16 166.94 34.352 164.156 35.984C161.404 37.584 158.412 38.384 155.18 38.384C151.916 38.384 148.908 37.584 146.156 35.984C143.404 34.352 141.212 32.16 139.58 29.408C137.98 26.656 137.18 23.648 137.18 20.384ZM144.38 20.384C144.38 22.432 144.86 24.32 145.82 26.048C146.812 27.776 148.14 29.152 149.804 30.176C151.5 31.168 153.372 31.664 155.42 31.664C157.404 31.664 159.212 31.168 160.844 30.176C162.476 29.152 163.756 27.792 164.684 26.096C165.612 24.368 166.076 22.464 166.076 20.384C166.076 18.272 165.596 16.352 164.636 14.624C163.676 12.896 162.364 11.536 160.7 10.544C159.068 9.52 157.244 9.008 155.228 9.008C153.212 9.008 151.372 9.52 149.708 10.544C148.076 11.536 146.78 12.896 145.82 14.624C144.86 16.352 144.38 18.272 144.38 20.384ZM221.399 1.232V38H214.439V21.152L202.919 37.52H202.823L191.735 22.208V38H185.015V1.232H185.063L202.967 26.624L221.303 1.232H221.399ZM252.802 31.088H241.09L238.21 38H231.346L247.282 1.28H247.666L263.602 38H255.538L252.802 31.088ZM250.498 25.232L247.09 16.64L243.538 25.232H250.498ZM269.002 20.384C269.002 17.184 269.802 14.192 271.402 11.408C273.034 8.624 275.226 6.416 277.978 4.784C280.762 3.12 283.77 2.288 287.002 2.288C290.234 2.288 293.226 3.12 295.978 4.784C298.762 6.416 300.97 8.624 302.602 11.408C304.266 14.192 305.098 17.184 305.098 20.384C305.098 23.648 304.266 26.656 302.602 29.408C300.97 32.16 298.762 34.352 295.978 35.984C293.226 37.584 290.234 38.384 287.002 38.384C283.738 38.384 280.73 37.584 277.978 35.984C275.226 34.352 273.034 32.16 271.402 29.408C269.802 26.656 269.002 23.648 269.002 20.384ZM276.202 20.384C276.202 22.432 276.682 24.32 277.642 26.048C278.634 27.776 279.962 29.152 281.626 30.176C283.322 31.168 285.194 31.664 287.242 31.664C289.226 31.664 291.034 31.168 292.666 30.176C294.298 29.152 295.578 27.792 296.506 26.096C297.434 24.368 297.898 22.464 297.898 20.384C297.898 18.272 297.418 16.352 296.458 14.624C295.498 12.896 294.186 11.536 292.522 10.544C290.89 9.52 289.066 9.008 287.05 9.008C285.034 9.008 283.194 9.52 281.53 10.544C279.898 11.536 278.602 12.896 277.642 14.624C276.682 16.352 276.202 18.272 276.202 20.384ZM348.661 2.672V39.44H348.469L323.749 17.12L323.893 38H316.837V1.28H317.125L341.797 23.936L341.653 2.672H348.661Z" fill="white"/>
<path d="M23.7504 55.932C23.1784 55.624 22.5697 55.3747 21.9244 55.184C21.2791 54.9933 20.6704 54.898 20.0984 54.898C19.2331 54.898 18.5437 55.096 18.0304 55.492C17.5317 55.8733 17.2824 56.4013 17.2824 57.076C17.2824 57.736 17.5757 58.2787 18.1624 58.704C18.7637 59.1147 19.6144 59.5253 20.7144 59.936C21.5357 60.2293 22.2251 60.552 22.7824 60.904C23.3544 61.2413 23.8237 61.718 24.1904 62.334C24.5717 62.9353 24.7624 63.7053 24.7624 64.644C24.7624 65.4947 24.5497 66.2647 24.1244 66.954C23.6991 67.6433 23.0904 68.186 22.2984 68.582C21.5211 68.978 20.6044 69.176 19.5484 69.176C18.5657 69.176 17.6197 69.022 16.7104 68.714C15.8011 68.3913 15.0017 67.988 14.3124 67.504L15.2584 65.81C15.8011 66.2207 16.4537 66.5727 17.2164 66.866C17.9791 67.1447 18.6904 67.284 19.3504 67.284C20.2011 67.284 20.9417 67.064 21.5724 66.624C22.2177 66.184 22.5404 65.5313 22.5404 64.666C22.5404 63.9327 22.2691 63.3533 21.7264 62.928C21.1984 62.488 20.4504 62.0773 19.4824 61.696C18.5877 61.3587 17.8397 61.0287 17.2384 60.706C16.6517 60.3833 16.1457 59.9433 15.7204 59.386C15.2951 58.814 15.0824 58.1027 15.0824 57.252C15.0824 56.0053 15.5151 55.0007 16.3804 54.238C17.2604 53.4607 18.3971 53.05 19.7904 53.006C21.5064 53.006 23.0977 53.4313 24.5644 54.282L23.7504 55.932ZM43.9911 59.892V69H41.9451V67.504C41.6224 67.9293 41.1531 68.3253 40.5371 68.692C39.9211 69.044 39.2244 69.22 38.4471 69.22C37.5818 69.22 36.7971 69.0367 36.0931 68.67C35.4038 68.2887 34.8538 67.7387 34.4431 67.02C34.0471 66.3013 33.8491 65.4433 33.8491 64.446C33.8491 63.4487 34.0544 62.5833 34.4651 61.85C34.8904 61.102 35.4551 60.53 36.1591 60.134C36.8778 59.7233 37.6698 59.518 38.5351 59.518C39.3124 59.518 39.9871 59.6867 40.5591 60.024C41.1311 60.3613 41.5931 60.8013 41.9451 61.344L42.0991 59.892H43.9911ZM38.9971 67.526C39.7451 67.526 40.3831 67.3207 40.9111 66.91C41.4538 66.4847 41.7984 65.9127 41.9451 65.194V63.39C41.7691 62.7447 41.4024 62.224 40.8451 61.828C40.2878 61.4173 39.6498 61.212 38.9311 61.212C38.3884 61.212 37.8824 61.344 37.4131 61.608C36.9584 61.872 36.5918 62.246 36.3131 62.73C36.0491 63.1993 35.9171 63.7347 35.9171 64.336C35.9171 64.9227 36.0564 65.458 36.3351 65.942C36.6138 66.426 36.9878 66.8147 37.4571 67.108C37.9264 67.3867 38.4398 67.526 38.9971 67.526ZM55.1212 61.718H53.5592V59.87H55.1212V56.042C55.1212 54.722 55.4219 53.71 56.0232 53.006C56.6245 52.302 57.5045 51.95 58.6632 51.95C58.9859 51.95 59.3305 52.0013 59.6972 52.104C60.0639 52.192 60.3865 52.324 60.6652 52.5L59.7852 53.996C59.5652 53.7613 59.2572 53.644 58.8612 53.644C58.3039 53.644 57.8785 53.8347 57.5852 54.216C57.3065 54.5973 57.1672 55.2133 57.1672 56.064V59.87H60.0712V61.718H57.1672V69H55.1212V61.718ZM73.303 67.46C74.0657 67.46 74.8063 67.196 75.525 66.668L76.471 68.186C75.987 68.5087 75.459 68.7653 74.887 68.956C74.3297 69.132 73.787 69.22 73.259 69.22C72.247 69.22 71.3597 69.0147 70.597 68.604C69.849 68.1787 69.2697 67.5993 68.859 66.866C68.4483 66.1327 68.243 65.304 68.243 64.38C68.243 63.4853 68.463 62.6713 68.903 61.938C69.3577 61.19 69.9737 60.6033 70.751 60.178C71.5283 59.738 72.379 59.518 73.303 59.518C74.491 59.518 75.481 59.87 76.273 60.574C77.0797 61.2633 77.6297 62.2313 77.923 63.478L70.707 66.008C70.971 66.4627 71.323 66.822 71.763 67.086C72.2177 67.3353 72.731 67.46 73.303 67.46ZM73.149 61.146C72.313 61.146 71.6237 61.4393 71.081 62.026C70.5383 62.6127 70.267 63.3607 70.267 64.27C70.267 64.49 70.2743 64.6587 70.289 64.776L75.591 62.818C75.371 62.3193 75.0557 61.916 74.645 61.608C74.249 61.3 73.7503 61.146 73.149 61.146ZM110.966 53.094V55.14H106.698V69H104.564V55.14H100.406V53.094H110.966ZM121.36 62.048C121.594 61.5493 121.924 61.1093 122.35 60.728C122.79 60.3467 123.252 60.0533 123.736 59.848C124.22 59.6427 124.645 59.5327 125.012 59.518L124.924 61.564C124.264 61.5347 123.662 61.6667 123.12 61.96C122.592 62.2533 122.174 62.664 121.866 63.192C121.572 63.7053 121.426 64.2553 121.426 64.842V69H119.38V59.892H121.206L121.36 62.048ZM143.606 59.892V69H141.56V67.504C141.238 67.9293 140.768 68.3253 140.152 68.692C139.536 69.044 138.84 69.22 138.062 69.22C137.197 69.22 136.412 69.0367 135.708 68.67C135.019 68.2887 134.469 67.7387 134.058 67.02C133.662 66.3013 133.464 65.4433 133.464 64.446C133.464 63.4487 133.67 62.5833 134.08 61.85C134.506 61.102 135.07 60.53 135.774 60.134C136.493 59.7233 137.285 59.518 138.15 59.518C138.928 59.518 139.602 59.6867 140.174 60.024C140.746 60.3613 141.208 60.8013 141.56 61.344L141.714 59.892H143.606ZM138.612 67.526C139.36 67.526 139.998 67.3207 140.526 66.91C141.069 66.4847 141.414 65.9127 141.56 65.194V63.39C141.384 62.7447 141.018 62.224 140.46 61.828C139.903 61.4173 139.265 61.212 138.546 61.212C138.004 61.212 137.498 61.344 137.028 61.608C136.574 61.872 136.207 62.246 135.928 62.73C135.664 63.1993 135.532 63.7347 135.532 64.336C135.532 64.9227 135.672 65.458 135.95 65.942C136.229 66.426 136.603 66.8147 137.072 67.108C137.542 67.3867 138.055 67.526 138.612 67.526ZM162.657 59.892L157.795 69.264H157.685L152.625 59.892H155.067L157.817 65.7L160.369 59.892H162.657ZM175.733 67.46C176.495 67.46 177.236 67.196 177.955 66.668L178.901 68.186C178.417 68.5087 177.889 68.7653 177.317 68.956C176.759 69.132 176.217 69.22 175.689 69.22C174.677 69.22 173.789 69.0147 173.027 68.604C172.279 68.1787 171.699 67.5993 171.289 66.866C170.878 66.1327 170.673 65.304 170.673 64.38C170.673 63.4853 170.893 62.6713 171.333 61.938C171.787 61.19 172.403 60.6033 173.181 60.178C173.958 59.738 174.809 59.518 175.733 59.518C176.921 59.518 177.911 59.87 178.703 60.574C179.509 61.2633 180.059 62.2313 180.353 63.478L173.137 66.008C173.401 66.4627 173.753 66.822 174.193 67.086C174.647 67.3353 175.161 67.46 175.733 67.46ZM175.579 61.146C174.743 61.146 174.053 61.4393 173.511 62.026C172.968 62.6127 172.697 63.3607 172.697 64.27C172.697 64.49 172.704 64.6587 172.719 64.776L178.021 62.818C177.801 62.3193 177.485 61.916 177.075 61.608C176.679 61.3 176.18 61.146 175.579 61.146ZM191.76 51.95V69H189.714V51.95H191.76ZM224.767 64.82H218.651L216.957 69H214.845L221.797 52.434H221.929L228.881 69H226.417L224.767 64.82ZM224.041 62.972L221.775 57.164L219.421 62.972H224.041ZM243.823 59.54C244.673 59.54 245.377 59.7967 245.935 60.31C246.492 60.8087 246.778 61.4613 246.793 62.268V69H244.725V62.972C244.695 62.4587 244.541 62.0553 244.263 61.762C243.984 61.4687 243.566 61.3147 243.009 61.3C242.202 61.3 241.535 61.6227 241.007 62.268C240.479 62.9133 240.215 63.7347 240.215 64.732V69H238.169V59.892H240.017L240.149 61.652C240.471 60.992 240.955 60.4787 241.601 60.112C242.246 59.7307 242.987 59.54 243.823 59.54ZM265.494 59.892L259.62 73.378H257.596L259.686 68.692L255.462 59.892H257.772L260.72 66.382L263.602 59.892H265.494ZM287.168 59.892L282.966 69.55L280.04 63.302L277.378 69.55L273.154 59.892H275.178L277.62 65.414L279.314 61.454L278.588 59.892H280.37L282.834 65.546L285.144 59.892H287.168ZM301.837 59.54C302.688 59.54 303.392 59.7967 303.949 60.31C304.507 60.8087 304.793 61.4613 304.807 62.268V69H302.739V62.972C302.71 62.4587 302.556 62.0553 302.277 61.762C301.999 61.4687 301.581 61.3147 301.023 61.3C300.495 61.3 300.019 61.4467 299.593 61.74C299.168 62.0333 298.831 62.444 298.581 62.972C298.347 63.5 298.229 64.0867 298.229 64.732V69H296.183V51.95H298.185V61.542C298.523 60.9407 299.007 60.4567 299.637 60.09C300.283 59.7233 301.016 59.54 301.837 59.54ZM319.431 67.46C320.194 67.46 320.935 67.196 321.653 66.668L322.599 68.186C322.115 68.5087 321.587 68.7653 321.015 68.956C320.458 69.132 319.915 69.22 319.387 69.22C318.375 69.22 317.488 69.0147 316.725 68.604C315.977 68.1787 315.398 67.5993 314.987 66.866C314.577 66.1327 314.371 65.304 314.371 64.38C314.371 63.4853 314.591 62.6713 315.031 61.938C315.486 61.19 316.102 60.6033 316.879 60.178C317.657 59.738 318.507 59.518 319.431 59.518C320.619 59.518 321.609 59.87 322.401 60.574C323.208 61.2633 323.758 62.2313 324.051 63.478L316.835 66.008C317.099 66.4627 317.451 66.822 317.891 67.086C318.346 67.3353 318.859 67.46 319.431 67.46ZM319.277 61.146C318.441 61.146 317.752 61.4393 317.209 62.026C316.667 62.6127 316.395 63.3607 316.395 64.27C316.395 64.49 316.403 64.6587 316.417 64.776L321.719 62.818C321.499 62.3193 321.184 61.916 320.773 61.608C320.377 61.3 319.879 61.146 319.277 61.146ZM335.393 62.048C335.628 61.5493 335.958 61.1093 336.383 60.728C336.823 60.3467 337.285 60.0533 337.769 59.848C338.253 59.6427 338.678 59.5327 339.045 59.518L338.957 61.564C338.297 61.5347 337.696 61.6667 337.153 61.96C336.625 62.2533 336.207 62.664 335.899 63.192C335.606 63.7053 335.459 64.2553 335.459 64.842V69H333.413V59.892H335.239L335.393 62.048ZM352.386 67.46C353.149 67.46 353.889 67.196 354.608 66.668L355.554 68.186C355.07 68.5087 354.542 68.7653 353.97 68.956C353.413 69.132 352.87 69.22 352.342 69.22C351.33 69.22 350.443 69.0147 349.68 68.604C348.932 68.1787 348.353 67.5993 347.942 66.866C347.531 66.1327 347.326 65.304 347.326 64.38C347.326 63.4853 347.546 62.6713 347.986 61.938C348.441 61.19 349.057 60.6033 349.834 60.178C350.611 59.738 351.462 59.518 352.386 59.518C353.574 59.518 354.564 59.87 355.356 60.574C356.163 61.2633 356.713 62.2313 357.006 63.478L349.79 66.008C350.054 66.4627 350.406 66.822 350.846 67.086C351.301 67.3353 351.814 67.46 352.386 67.46ZM352.232 61.146C351.396 61.146 350.707 61.4393 350.164 62.026C349.621 62.6127 349.35 63.3607 349.35 64.27C349.35 64.49 349.357 64.6587 349.372 64.776L354.674 62.818C354.454 62.3193 354.139 61.916 353.728 61.608C353.332 61.3 352.833 61.146 352.232 61.146Z" fill="white"/>
</svg>
