<svg width="326" height="39" viewBox="0 0 326 39" fill="none" xmlns="http://www.w3.org/2000/svg">
<path d="M18.5536 18.376C20.4096 19.24 21.8496 20.376 22.8736 21.784C23.9296 23.16 24.4576 24.76 24.4576 26.584C24.4576 30.168 23.2736 32.808 20.9056 34.504C18.5696 36.168 15.6416 37 12.1216 37H0.36156V1.672H10.7296C14.4736 1.672 17.4176 2.44 19.5616 3.976C21.7056 5.48 22.7776 7.672 22.7776 10.552C22.7776 12.312 22.4096 13.864 21.6736 15.208C20.9376 16.52 19.8976 17.576 18.5536 18.376ZM7.32156 16.12H11.5456C12.8256 16.12 13.8176 15.736 14.5216 14.968C15.2256 14.168 15.5776 13.192 15.5776 12.04C15.5776 10.856 15.1776 9.96 14.3776 9.352C13.5776 8.712 12.4736 8.392 11.0656 8.392H7.32156V16.12ZM11.7856 30.52C13.4176 30.52 14.7296 30.2 15.7216 29.56C16.7456 28.888 17.2576 27.896 17.2576 26.584C17.2576 24.088 15.2736 22.84 11.3056 22.84H7.32156V30.52H11.7856ZM65.9517 37H58.9917V22.648H43.1997V37H36.2397V1.672H43.1997V15.928H58.9917V1.672H65.9517V37ZM98.9082 37L91.4682 25.768H86.8122V37H79.8522V1.672H90.5562C94.9402 1.672 98.3322 2.744 100.732 4.888C103.164 7 104.38 9.896 104.38 13.576C104.38 15.752 103.916 17.8 102.988 19.72C102.092 21.608 100.7 23.096 98.8122 24.184L107.02 37H98.9082ZM86.8122 19.048H91.7562C93.6442 19.048 95.0202 18.504 95.8842 17.416C96.7482 16.296 97.1802 15.096 97.1802 13.816C97.1802 12.536 96.8122 11.32 96.0762 10.168C95.3402 8.984 93.9162 8.392 91.8042 8.392H86.8122V19.048ZM114.18 19.384C114.18 16.184 114.98 13.192 116.58 10.408C118.212 7.624 120.404 5.416 123.156 3.784C125.94 2.12 128.948 1.288 132.18 1.288C135.412 1.288 138.404 2.12 141.156 3.784C143.94 5.416 146.148 7.624 147.78 10.408C149.444 13.192 150.276 16.184 150.276 19.384C150.276 22.648 149.444 25.656 147.78 28.408C146.148 31.16 143.94 33.352 141.156 34.984C138.404 36.584 135.412 37.384 132.18 37.384C128.916 37.384 125.908 36.584 123.156 34.984C120.404 33.352 118.212 31.16 116.58 28.408C114.98 25.656 114.18 22.648 114.18 19.384ZM121.38 19.384C121.38 21.432 121.86 23.32 122.82 25.048C123.812 26.776 125.14 28.152 126.804 29.176C128.5 30.168 130.372 30.664 132.42 30.664C134.404 30.664 136.212 30.168 137.844 29.176C139.476 28.152 140.756 26.792 141.684 25.096C142.612 23.368 143.076 21.464 143.076 19.384C143.076 17.272 142.596 15.352 141.636 13.624C140.676 11.896 139.364 10.536 137.7 9.544C136.068 8.52 134.244 8.008 132.228 8.008C130.212 8.008 128.372 8.52 126.708 9.544C125.076 10.536 123.78 11.896 122.82 13.624C121.86 15.352 121.38 17.272 121.38 19.384ZM198.399 0.231998V37H191.439V20.152L179.919 36.52H179.823L168.735 21.208V37H162.015V0.231998H162.063L179.967 25.624L198.303 0.231998H198.399ZM229.802 30.088H218.09L215.21 37H208.346L224.282 0.279998H224.666L240.602 37H232.538L229.802 30.088ZM227.498 24.232L224.09 15.64L220.538 24.232H227.498ZM246.002 19.384C246.002 16.184 246.802 13.192 248.402 10.408C250.034 7.624 252.226 5.416 254.978 3.784C257.762 2.12 260.77 1.288 264.002 1.288C267.234 1.288 270.226 2.12 272.978 3.784C275.762 5.416 277.97 7.624 279.602 10.408C281.266 13.192 282.098 16.184 282.098 19.384C282.098 22.648 281.266 25.656 279.602 28.408C277.97 31.16 275.762 33.352 272.978 34.984C270.226 36.584 267.234 37.384 264.002 37.384C260.738 37.384 257.73 36.584 254.978 34.984C252.226 33.352 250.034 31.16 248.402 28.408C246.802 25.656 246.002 22.648 246.002 19.384ZM253.202 19.384C253.202 21.432 253.682 23.32 254.642 25.048C255.634 26.776 256.962 28.152 258.626 29.176C260.322 30.168 262.194 30.664 264.242 30.664C266.226 30.664 268.034 30.168 269.666 29.176C271.298 28.152 272.578 26.792 273.506 25.096C274.434 23.368 274.898 21.464 274.898 19.384C274.898 17.272 274.418 15.352 273.458 13.624C272.498 11.896 271.186 10.536 269.522 9.544C267.89 8.52 266.066 8.008 264.05 8.008C262.034 8.008 260.194 8.52 258.53 9.544C256.898 10.536 255.602 11.896 254.642 13.624C253.682 15.352 253.202 17.272 253.202 19.384ZM325.661 1.672V38.44H325.469L300.749 16.12L300.893 37H293.837V0.279998H294.125L318.797 22.936L318.653 1.672H325.661Z" fill="white"/>
</svg>
