<?xml version="1.0" standalone="no"?>
<!DOCTYPE svg PUBLIC "-//W3C//DTD SVG 20010904//EN"
 "http://www.w3.org/TR/2001/REC-SVG-20010904/DTD/svg10.dtd">
<svg version="1.0" xmlns="http://www.w3.org/2000/svg"
 width="2976.000000pt" height="2976.000000pt" viewBox="0 0 2976.000000 2976.000000"
 preserveAspectRatio="xMidYMid meet">
<metadata>
Created by potrace 1.14, written by Peter Selinger 2001-2017
</metadata>
<g transform="translate(0.000000,2976.000000) scale(0.100000,-0.100000)"
fill="#000000" stroke="none">
<path d="M14801 17739 c0 -46 -1 -104 -2 -129 0 -25 0 -49 1 -55 2 -10 1 -129
-1 -143 -1 -4 0 -11 1 -17 2 -10 1 -128 -1 -143 -1 -4 0 -11 1 -17 2 -10 1
-128 -1 -143 -1 -4 0 -10 1 -14 1 -8 2 -93 1 -233 -1 -113 -1 -150 0 -210 0
-33 0 -87 0 -120 0 -33 0 -82 0 -110 0 -27 0 -81 0 -120 -1 -38 -1 -97 0 -130
0 -33 0 -87 0 -120 0 -33 0 -82 0 -110 1 -49 0 -146 -2 -235 0 -25 0 -49 1
-55 2 -10 1 -129 -1 -143 -1 -4 0 -11 1 -17 2 -10 1 -128 -1 -143 -1 -4 0 -11
1 -17 2 -10 1 -128 -1 -143 -1 -4 0 -11 1 -17 4 -21 1 -235 -4 -243 -13 -22
14 -35 71 -33 32 2 65 3 73 2 8 0 35 0 60 0 25 0 50 0 55 0 48 -1 208 -2 242
-2 l41 1 1 621 c0 341 1 623 4 625 3 4 118 -152 414 -561 24 -33 46 -64 51
-70 89 -118 142 -194 142 -203 0 -6 4 -12 8 -14 5 -1 28 -30 53 -63 24 -33 47
-61 52 -63 4 -2 7 -8 7 -14 0 -6 17 -32 38 -58 20 -27 55 -73 77 -104 22 -31
42 -56 46 -56 3 0 27 30 53 68 25 37 60 87 77 112 17 25 46 65 63 90 17 25 33
47 36 50 6 5 50 69 176 250 32 47 66 94 76 104 10 11 18 25 18 32 0 7 4 14 8
16 8 3 24 24 122 168 25 36 50 70 55 77 6 6 20 27 33 45 13 18 49 69 80 113
31 44 71 102 89 130 18 27 34 43 34 35 1 -8 2 -308 3 -667 0 -358 4 -654 7
-657 5 -5 205 -10 234 -6 6 1 33 1 61 0 28 -1 97 -2 153 -3 l101 -2 0 30 c4
233 0 2901 -4 2905 -3 3 -23 -20 -45 -50 -22 -30 -44 -60 -49 -65 -5 -6 -26
-35 -47 -65 -64 -92 -109 -154 -118 -165 -7 -8 -39 -54 -175 -244 -9 -12 -26
-34 -36 -48 -11 -14 -45 -62 -77 -107 -32 -44 -62 -86 -68 -93 -6 -7 -11 -17
-11 -23 0 -5 -4 -10 -9 -10 -4 0 -21 -20 -37 -45 -15 -25 -32 -45 -36 -45 -4
0 -8 -5 -8 -10 0 -6 -5 -16 -10 -23 -10 -11 -198 -271 -230 -317 -8 -12 -54
-76 -102 -141 -49 -66 -88 -124 -88 -129 0 -6 -4 -10 -9 -10 -5 0 -18 -15 -30
-32 -11 -18 -31 -47 -43 -65 -13 -17 -52 -73 -88 -123 -36 -50 -75 -103 -88
-118 -13 -15 -30 -39 -38 -54 -8 -16 -18 -28 -23 -28 -9 0 -71 75 -71 88 0 4
-8 17 -18 28 -10 10 -44 57 -77 104 -32 47 -62 87 -66 90 -3 3 -14 20 -23 38
-9 17 -20 32 -25 32 -4 0 -13 11 -19 25 -7 14 -17 31 -22 38 -9 10 -125 174
-182 257 -10 14 -32 46 -50 71 -18 25 -80 113 -137 195 -58 82 -107 151 -110
154 -3 3 -15 19 -27 35 -49 72 -117 168 -195 280 -47 66 -156 221 -243 345
-87 124 -162 229 -166 234 -5 4 -9 -29 -9 -75z"/>
<path d="M19773 17802 c-3 -9 -15 -37 -25 -62 -11 -25 -23 -54 -28 -65 -4 -11
-18 -42 -31 -70 -12 -27 -24 -54 -25 -60 -1 -5 -16 -41 -34 -80 -44 -99 -55
-123 -120 -275 -17 -41 -42 -98 -55 -126 -13 -28 -42 -95 -65 -150 -23 -54
-50 -117 -60 -139 -10 -22 -53 -121 -95 -220 -43 -99 -82 -186 -87 -192 -6 -7
-8 -13 -4 -13 3 0 -3 -16 -14 -35 -11 -20 -20 -40 -20 -45 0 -5 -16 -43 -35
-84 -19 -42 -35 -78 -35 -80 0 -3 -14 -35 -31 -73 -17 -37 -37 -82 -44 -99 -8
-16 -37 -84 -65 -149 -28 -65 -57 -133 -65 -149 -7 -17 -44 -101 -81 -186 -37
-85 -78 -180 -92 -210 -14 -30 -25 -61 -25 -67 0 -7 -4 -13 -9 -13 -4 0 -8 -7
-8 -15 0 -8 -4 -23 -9 -33 -15 -27 -58 -124 -80 -179 -22 -55 -16 -67 25 -52
12 4 25 5 28 2 3 -3 81 -5 173 -4 92 2 175 2 183 2 110 -3 124 -1 126 17 0 4
8 25 18 47 10 22 27 63 38 90 11 28 25 64 33 80 7 17 25 59 40 95 15 36 33 79
40 95 7 17 19 47 26 68 7 21 19 43 27 49 9 8 151 11 470 10 251 0 460 -1 464
-1 4 -1 10 -11 13 -23 4 -13 13 -36 20 -53 7 -16 50 -124 95 -240 46 -115 87
-216 93 -223 6 -7 20 -12 31 -11 12 0 26 0 31 0 10 -2 146 -3 305 -2 47 1 112
1 145 0 33 0 65 0 70 1 6 1 22 1 37 0 l28 -2 -19 44 c-18 42 -39 88 -87 196
-13 29 -24 54 -24 57 0 2 -27 66 -61 142 -60 135 -75 170 -103 236 -60 139
-82 190 -108 247 -17 36 -31 70 -33 75 -1 6 -10 28 -19 50 -10 22 -24 54 -31
70 -7 17 -24 55 -38 86 -14 30 -44 100 -67 155 -23 54 -50 117 -60 139 -10 22
-57 130 -105 240 -47 110 -92 214 -99 230 -8 17 -35 80 -61 140 -26 61 -56
130 -67 155 -11 25 -27 61 -35 80 -8 19 -26 58 -39 87 -13 28 -24 54 -24 57 0
3 -13 34 -30 68 -16 34 -30 65 -30 69 0 5 -16 43 -35 86 -20 43 -50 111 -68
152 -32 74 -61 99 -74 63z m7 -1243 c6 -11 13 -28 15 -37 2 -9 49 -132 105
-272 56 -140 110 -276 121 -302 l18 -47 -279 1 c-256 0 -278 1 -270 17 12 22
130 309 130 315 0 3 11 29 24 58 13 29 45 106 71 171 26 64 49 117 51 117 2 0
8 -9 14 -21z"/>
<path d="M25348 17808 c-2 -7 -3 -668 -3 -1468 l1 -1455 35 -2 c28 -2 448 -5
512 -3 17 0 18 37 13 835 -4 691 -3 833 8 823 7 -7 31 -29 52 -48 87 -77 229
-206 244 -220 9 -8 49 -44 89 -80 40 -36 97 -87 126 -115 30 -27 70 -63 90
-80 19 -16 57 -50 83 -75 27 -25 84 -76 127 -115 43 -38 103 -92 133 -120 80
-73 102 -93 177 -160 37 -33 82 -73 100 -90 18 -16 65 -59 105 -95 41 -36 83
-74 95 -85 23 -23 183 -167 233 -211 19 -16 51 -45 71 -64 21 -19 70 -64 110
-100 40 -36 87 -77 104 -92 17 -16 33 -26 35 -23 6 5 9 2862 4 2911 l-4 31
-276 -1 -277 -1 2 -530 c1 -291 2 -548 3 -570 0 -22 1 -101 1 -175 0 -74 1
-195 2 -268 1 -74 0 -138 -3 -142 -3 -5 -30 15 -60 43 -30 29 -102 95 -160
147 -57 52 -113 104 -125 115 -11 11 -69 65 -130 120 -60 55 -119 109 -130
120 -12 11 -63 58 -115 105 -51 47 -112 103 -135 125 -24 22 -80 74 -126 115
-46 41 -113 102 -148 135 -36 33 -83 77 -106 97 -22 21 -61 57 -86 80 -25 24
-84 77 -130 119 -46 42 -98 90 -115 105 -16 16 -77 72 -134 124 -57 52 -118
109 -135 125 -77 72 -138 125 -145 125 -4 0 -10 -6 -12 -12z"/>
<path d="M12308 17734 c-2 -1 -31 -5 -64 -8 -129 -12 -289 -58 -422 -121 -40
-19 -75 -34 -78 -34 -3 0 -20 -11 -39 -25 -18 -14 -36 -26 -39 -26 -3 0 -25
-14 -48 -30 -24 -17 -54 -38 -68 -48 -56 -38 -190 -168 -251 -243 -63 -77
-136 -192 -183 -287 -24 -51 -43 -92 -40 -92 2 0 -3 -14 -12 -31 -15 -30 -61
-196 -69 -249 -20 -135 -24 -271 -12 -405 9 -93 11 -107 37 -209 107 -428 429
-797 845 -968 107 -44 201 -73 280 -85 17 -2 41 -7 55 -10 14 -3 97 -7 185 -8
153 -3 268 8 370 35 22 6 48 13 59 15 96 22 338 135 401 187 6 5 40 31 78 59
246 182 462 509 528 796 34 148 38 187 38 343 0 102 -2 130 -13 215 -25 181
-117 409 -237 585 -80 118 -198 249 -280 310 -18 14 -44 34 -58 46 -47 39
-185 121 -271 161 -85 41 -238 93 -285 98 -5 1 -27 4 -48 9 -20 4 -54 9 -75
12 -38 6 -280 13 -284 8z m272 -549 c14 -3 36 -8 50 -11 77 -14 226 -90 314
-158 178 -139 301 -356 332 -581 28 -211 -15 -462 -106 -608 -17 -27 -30 -51
-30 -54 0 -21 -134 -165 -205 -220 -99 -76 -253 -140 -380 -158 -54 -8 -242
-8 -254 0 -4 2 -23 7 -42 10 -48 8 -111 24 -134 35 -85 36 -127 58 -175 89
-62 39 -225 201 -235 231 -4 11 -11 20 -16 20 -5 0 -9 5 -9 10 0 6 -11 27 -23
48 -25 38 -75 158 -83 196 -28 129 -32 173 -29 281 3 118 6 141 26 220 40 156
141 330 251 431 49 45 143 114 156 114 5 0 12 4 14 8 4 12 167 80 208 87 19 4
53 10 75 14 44 9 256 6 295 -4z"/>
<path d="M22858 17735 c-2 -1 -30 -5 -63 -8 -33 -4 -71 -9 -85 -11 -61 -13
-126 -28 -140 -33 -8 -3 -21 -7 -29 -9 -22 -4 -206 -78 -211 -84 -3 -3 -36
-24 -75 -45 -111 -61 -272 -186 -339 -264 -12 -13 -36 -40 -53 -60 -50 -55
-140 -191 -187 -283 -69 -133 -121 -297 -142 -443 -4 -28 -16 -247 -15 -270 2
-35 10 -115 15 -140 3 -16 8 -48 12 -70 8 -49 12 -70 14 -70 1 0 3 -8 5 -18 8
-44 70 -217 77 -217 4 0 8 -6 8 -13 0 -35 94 -191 188 -309 62 -79 234 -247
254 -248 4 0 13 -6 21 -14 18 -18 107 -75 177 -112 47 -26 100 -49 215 -94 29
-12 134 -39 175 -45 19 -3 60 -9 90 -14 56 -10 367 -8 406 2 12 3 38 8 59 11
50 8 187 49 255 76 181 71 391 214 514 349 17 19 38 41 47 50 23 23 119 149
119 156 0 4 13 25 29 48 93 136 178 377 198 558 8 77 8 296 0 361 -7 56 -43
211 -58 253 -25 68 -65 163 -85 200 -27 52 -115 198 -123 205 -4 3 -22 25 -41
50 -41 54 -216 230 -228 230 -5 0 -15 7 -22 15 -12 15 -135 100 -175 121 -11
6 -40 22 -65 35 -86 48 -260 110 -344 124 -17 3 -38 8 -46 10 -49 13 -340 30
-352 20z m293 -555 c24 -7 49 -13 54 -15 48 -11 172 -71 240 -117 116 -78 249
-234 300 -353 24 -57 65 -175 60 -175 -3 0 -1 -10 4 -23 20 -51 28 -227 16
-325 -9 -70 -12 -83 -25 -132 -7 -25 -13 -49 -15 -55 -10 -44 -67 -160 -110
-225 -186 -278 -507 -415 -847 -360 -283 45 -527 236 -651 510 -29 65 -43 103
-47 132 -1 4 -6 22 -11 40 -20 71 -27 216 -15 328 24 221 148 455 317 595 110
91 275 165 404 182 22 3 42 7 44 9 9 8 241 -5 282 -16z"/>
<path d="M1870 17571 c0 -196 -1 -2357 0 -2539 l0 -152 78 0 c42 -1 91 0 107
1 17 0 37 1 45 0 8 0 89 0 180 0 91 0 172 0 180 0 57 -2 99 -2 106 0 5 1 14 1
19 0 19 -4 240 -1 331 3 87 5 117 9 174 21 14 3 36 8 50 11 45 8 184 56 207
70 12 8 29 14 38 14 8 0 15 5 15 10 0 6 5 10 10 10 38 0 215 148 257 215 117
185 155 406 110 646 -12 61 -93 215 -119 227 -5 2 -8 8 -8 13 0 11 -131 139
-141 139 -3 0 -18 10 -32 23 -15 12 -48 33 -74 46 -78 40 -78 39 -15 85 134
100 236 262 257 411 2 11 6 34 9 51 7 38 9 179 3 214 -3 14 -8 44 -11 68 -7
40 -25 89 -64 172 -42 88 -164 197 -297 262 -40 20 -104 45 -135 53 -3 1 -12
4 -20 8 -22 8 -156 35 -220 43 -30 4 -277 8 -547 9 l-493 2 0 -136z m987 -414
c54 -13 138 -64 169 -103 80 -97 78 -272 -3 -382 -36 -48 -60 -68 -112 -94
-42 -20 -63 -22 -263 -26 -120 -2 -219 0 -219 5 -3 22 -5 599 -2 605 4 8 395
3 430 -5z m7 -1151 c240 -20 361 -126 352 -310 -4 -83 -22 -129 -74 -182 -34
-35 -116 -80 -161 -89 -12 -2 -25 -6 -29 -9 -9 -5 -138 -19 -159 -17 -19 2
-31 2 -268 1 -11 0 -35 -1 -53 -1 -18 -1 -36 2 -40 6 -3 3 -7 140 -7 303 0
223 3 298 12 302 16 7 336 4 427 -4z"/>
<path d="M4740 17661 c-1 -25 -1 -660 -1 -1411 l0 -1365 63 -2 c35 -2 84 -3
111 -2 26 0 55 0 65 0 9 0 55 0 102 0 84 0 135 -1 148 -2 4 -1 21 -1 38 0 l30
1 0 573 0 572 630 2 631 1 2 -96 c2 -119 2 -91 1 -262 0 -80 0 -152 0 -160 1
-8 -1 -50 -2 -93 -2 -42 1 -77 5 -77 5 0 5 -5 1 -11 -4 -6 -6 -66 -5 -133 1
-66 1 -128 1 -136 0 -8 -1 -34 -1 -58 -1 -24 1 -46 5 -49 3 -3 2 -11 -3 -17
-15 -18 6 -56 31 -57 88 -2 240 0 243 3 2 2 32 1 67 -2 35 -3 97 -3 138 0 l76
5 -1 1410 0 1410 -277 1 c-274 0 -278 0 -279 -20 -3 -98 0 -206 6 -215 3 -6 3
-11 -2 -11 -9 0 -8 -282 1 -305 3 -8 2 -15 -2 -15 -4 0 -7 -56 -7 -125 0 -69
3 -125 7 -125 4 0 3 -11 -2 -24 -5 -13 -7 -26 -5 -28 9 -9 6 -268 -3 -269 -4
-1 -287 -2 -630 -2 -546 -2 -622 0 -623 13 -1 8 -2 265 -3 570 l-1 555 -277 1
-278 1 0 -46z"/>
<path d="M8230 17696 c-3 -60 -1 -2808 2 -2811 3 -4 185 -8 203 -4 6 1 14 1
18 0 29 -5 320 -1 325 4 4 4 7 205 7 448 l0 442 181 2 c99 1 185 -1 191 -5 10
-7 173 -249 173 -258 0 -3 9 -14 20 -26 11 -12 26 -34 32 -50 7 -15 16 -28 20
-28 5 0 8 -5 8 -10 0 -6 5 -16 11 -23 5 -7 80 -118 166 -247 85 -129 159 -239
163 -243 4 -5 54 -8 111 -7 57 1 110 1 117 1 6 0 32 0 57 0 25 0 53 0 63 0 9
0 77 -1 150 -1 74 -1 137 1 140 5 3 3 0 16 -8 28 -63 98 -148 233 -160 255 -8
15 -21 31 -27 35 -7 4 -13 12 -13 18 0 5 -16 32 -35 59 -19 27 -35 54 -35 58
0 5 -8 18 -17 30 -10 12 -40 56 -67 99 -50 78 -96 150 -216 336 -34 54 -61 99
-59 100 46 33 179 142 195 159 57 64 154 218 137 218 -4 0 -3 4 3 8 14 8 71
172 80 226 3 21 8 48 11 60 3 11 7 84 8 161 3 143 -11 255 -41 344 -17 50 -73
173 -83 181 -3 3 -18 23 -32 45 -55 84 -184 199 -289 256 -49 28 -187 83 -235
95 -16 4 -34 8 -40 10 -41 10 -108 21 -180 30 -95 12 -1055 12 -1055 0z m1133
-551 c31 -10 57 -22 57 -27 0 -4 6 -8 14 -8 44 0 140 -147 165 -255 47 -195
-41 -415 -197 -494 -72 -36 -140 -44 -372 -46 -124 0 -230 0 -235 2 -7 2 -10
150 -9 426 1 232 2 423 3 425 0 1 117 1 259 -1 221 -2 265 -5 315 -22z"/>
<path d="M4612 13755 c-47 -11 -103 -43 -130 -75 -23 -26 -62 -115 -67 -151
-2 -19 -5 -116 -5 -216 l0 -183 -59 0 c-38 0 -60 -4 -63 -12 -3 -7 -4 -40 -4
-73 l1 -60 50 -2 c28 -1 56 -2 63 -2 9 -1 12 -66 12 -291 l0 -290 28 -1 c15
-1 41 -1 57 0 17 1 41 1 55 2 l25 0 -1 290 -1 289 31 1 c17 1 63 1 101 1 103
-1 101 -3 102 78 l0 70 -117 0 -117 0 2 188 c3 198 5 221 30 258 32 49 112 68
159 37 21 -14 19 -16 64 67 13 23 22 43 20 44 -9 7 -67 26 -98 32 -52 11 -83
11 -138 -1z"/>
<path d="M15179 13740 c-4 -116 -3 -1324 1 -1330 3 -5 40 -10 83 -12 l77 -3 0
35 c4 281 0 1324 -5 1328 -3 4 -40 7 -81 7 -72 0 -74 0 -75 -25z"/>
<path d="M23702 13755 c-11 -16 -9 -1346 2 -1352 11 -7 133 -6 145 1 5 3 9 88
9 188 0 101 3 199 7 218 16 90 76 167 150 193 49 17 120 12 151 -11 47 -35 53
-71 53 -337 0 -136 2 -249 4 -252 3 -2 24 -4 48 -3 63 1 86 1 101 -2 10 -2 12
59 12 292 0 280 -1 297 -22 341 -38 81 -127 129 -233 124 -94 -5 -156 -31
-218 -92 -30 -29 -55 -53 -55 -53 -1 0 -1 170 -1 377 l0 377 -73 1 c-41 0 -76
-4 -80 -10z"/>
<path d="M17733 13703 c-3 -10 -17 -42 -29 -71 -13 -29 -24 -54 -24 -56 0 -2
-8 -21 -17 -42 -9 -22 -17 -41 -18 -44 -1 -3 -6 -16 -12 -30 -6 -14 -87 -207
-181 -430 -93 -223 -178 -423 -188 -445 -9 -22 -18 -42 -18 -45 -2 -9 -37 -93
-48 -113 -5 -11 -7 -21 -4 -24 6 -7 107 -6 113 1 3 3 14 1 24 -5 16 -8 21 -4
35 28 9 21 22 52 30 68 7 17 29 70 47 118 19 49 41 97 49 106 12 15 40 16 248
15 129 -1 237 -2 240 -3 4 0 12 -18 19 -38 12 -38 19 -55 39 -103 5 -14 23
-56 38 -95 35 -88 43 -97 91 -97 21 1 62 1 91 1 l52 0 -16 38 c-8 21 -29 72
-46 113 -16 41 -38 93 -48 115 -10 22 -30 69 -45 105 -15 36 -33 79 -40 95 -7
17 -30 71 -50 120 -20 50 -42 101 -48 115 -6 14 -11 27 -12 30 0 3 -9 23 -19
45 -23 50 -22 48 -102 240 -36 88 -74 178 -83 200 -10 22 -24 55 -31 73 -14
36 -27 41 -37 15z m72 -518 c15 -38 31 -79 36 -90 18 -46 79 -205 79 -208 0
-2 -81 -4 -180 -4 -99 1 -180 4 -180 7 0 3 36 96 81 206 45 109 86 210 91 224
11 28 8 32 73 -135z"/>
<path d="M1470 13664 c-30 -8 -74 -26 -98 -40 -49 -29 -112 -87 -112 -103 0
-6 -4 -11 -8 -11 -8 0 -27 -51 -39 -100 -5 -22 -5 -122 1 -146 18 -84 94 -166
201 -219 33 -16 62 -30 65 -31 21 -4 165 -67 189 -82 72 -44 111 -84 121 -123
15 -55 15 -120 0 -129 -6 -4 -10 -10 -8 -14 14 -28 -91 -106 -162 -122 -34 -7
-116 -6 -154 1 -68 14 -208 75 -222 96 -13 21 -31 5 -63 -56 -19 -35 -33 -66
-30 -68 33 -30 189 -102 242 -111 12 -3 22 -5 22 -6 0 -5 73 -11 145 -12 179
-2 320 73 384 205 22 45 41 119 38 152 -7 88 -13 117 -31 155 -48 102 -115
154 -291 224 -169 67 -268 134 -271 184 -1 9 -2 31 -4 47 -6 65 46 133 120
158 36 12 156 15 195 5 8 -3 31 -8 50 -12 19 -5 59 -19 88 -32 29 -14 58 -22
63 -18 9 5 31 49 33 66 1 4 7 13 14 20 25 25 12 43 -51 70 -142 60 -313 81
-427 52z"/>
<path d="M8048 13672 c-12 -2 -16 -19 -16 -82 l-1 -80 97 -1 c53 0 127 0 165
1 37 1 68 -2 68 -7 1 -4 2 -252 3 -551 1 -470 3 -544 16 -552 8 -5 16 -6 18
-1 2 5 17 6 35 2 36 -8 86 -5 96 4 3 4 6 253 6 553 l0 547 130 2 c72 1 148 2
171 3 l41 0 0 76 c0 57 -3 77 -14 81 -15 6 -787 10 -815 5z"/>
<path d="M2980 13144 c-30 -8 -76 -29 -103 -46 -48 -31 -117 -105 -117 -127 0
-6 -4 -11 -8 -11 -7 0 -24 -51 -39 -110 -11 -48 -2 -171 17 -229 24 -71 27
-76 91 -141 61 -62 136 -91 244 -95 44 -1 85 1 90 4 6 3 12 6 15 6 37 5 146
73 163 101 16 27 24 13 22 -40 -1 -44 2 -55 14 -55 9 0 39 -1 66 -1 91 -3 86
-7 85 63 0 95 0 100 1 132 0 17 0 37 -1 45 0 8 0 26 1 40 0 14 0 31 0 38 -1
19 -2 178 -1 210 0 15 0 38 0 57 -1 8 -1 36 -1 63 0 26 0 55 0 65 0 15 -10 17
-75 17 -42 0 -75 -4 -75 -10 -1 -5 -3 -14 -4 -20 -1 -5 -3 -26 -4 -46 l-1 -36
-41 41 c-85 85 -217 118 -339 85z m257 -153 c45 -23 90 -71 107 -114 7 -18 12
-68 11 -112 -1 -84 -16 -128 -58 -175 -24 -27 -87 -66 -87 -54 0 3 -6 2 -12
-4 -12 -9 -123 -10 -159 0 -49 12 -114 75 -144 140 -40 87 -17 214 51 281 76
75 190 90 291 38z"/>
<path d="M5795 13153 c-41 -7 -125 -37 -125 -45 0 -4 -4 -7 -9 -5 -5 1 -34
-18 -64 -43 -41 -33 -66 -64 -94 -119 -34 -67 -38 -80 -39 -164 -2 -93 19
-179 52 -218 8 -8 14 -19 14 -23 0 -5 15 -22 33 -38 91 -82 162 -110 287 -113
77 -2 139 13 213 50 l54 28 -34 58 c-20 33 -37 59 -38 59 -1 0 -27 -11 -58
-25 -108 -50 -218 -36 -291 36 -22 23 -35 43 -30 48 7 6 280 105 319 115 6 2
21 7 35 13 14 5 68 25 121 43 l96 32 -14 40 c-45 131 -129 222 -238 258 -38
13 -147 20 -190 13z m110 -133 c50 -11 85 -37 121 -89 l23 -35 -32 -11 c-18
-7 -76 -29 -130 -50 -55 -20 -104 -38 -110 -39 -7 -2 -25 -9 -42 -15 -70 -30
-105 -39 -110 -31 -9 15 5 113 23 150 22 47 60 84 110 107 50 23 87 26 147 13z"/>
<path d="M9922 13140 c-26 -9 -58 -23 -72 -31 -29 -17 -130 -117 -130 -130 0
-5 -3 -9 -7 -9 -8 0 -9 13 -12 115 l-1 45 -75 0 -75 0 0 -365 0 -365 43 1 c23
1 47 0 52 -1 6 -1 24 -2 40 -1 l30 1 0 183 c-1 100 4 198 10 217 33 112 122
185 237 194 l32 2 3 81 c3 91 3 90 -75 63z"/>
<path d="M10928 13136 c-112 -37 -214 -142 -234 -239 -29 -142 -18 -250 36
-344 26 -45 108 -128 128 -128 4 0 12 -4 18 -7 31 -20 130 -37 195 -33 78 5
157 40 216 95 18 17 34 30 36 30 2 0 3 -23 1 -51 -1 -43 1 -52 20 -58 11 -5
33 -5 47 -1 17 5 31 4 38 -3 8 -8 11 -8 11 0 0 6 11 8 25 5 l25 -4 0 366 0
367 -77 -3 -78 -3 -3 -50 c-2 -27 -5 -51 -7 -53 -2 -2 -20 14 -40 37 -83 91
-224 122 -357 77z m215 -120 c67 -11 146 -78 173 -146 18 -44 10 -180 -13
-225 -41 -79 -121 -126 -216 -127 -99 0 -207 84 -235 183 -15 57 -3 189 19
189 5 0 9 6 9 13 0 18 57 75 93 94 30 15 113 32 132 26 6 -1 23 -5 38 -7z"/>
<path d="M13952 13144 c-175 -46 -290 -186 -296 -360 -8 -223 141 -387 364
-399 80 -4 146 9 228 46 62 28 62 28 50 56 -7 15 -21 37 -30 47 -10 11 -18 26
-18 33 0 18 -13 16 -62 -9 -24 -13 -50 -24 -58 -26 -47 -9 -111 -8 -151 4 -50
15 -119 73 -119 100 0 10 3 14 7 11 3 -4 11 -3 17 2 6 5 29 14 51 21 22 6 77
25 123 41 45 16 121 43 170 60 48 17 94 33 102 36 8 4 17 7 20 8 3 0 22 7 43
15 43 16 43 19 -5 119 -61 127 -171 201 -307 206 -43 2 -99 -3 -129 -11z m198
-142 c28 -17 90 -87 90 -101 0 -4 -24 -15 -52 -26 -29 -10 -59 -22 -65 -28 -7
-5 -13 -7 -13 -3 0 3 -17 -1 -37 -10 -88 -37 -253 -93 -256 -86 -5 8 -1 53 6
92 9 46 26 80 59 116 37 40 58 53 96 60 15 3 29 8 32 11 10 10 110 -8 140 -25z"/>
<path d="M19411 13143 c-70 -17 -110 -43 -161 -100 -37 -42 -40 -44 -41 -22
-1 30 -6 91 -8 102 0 4 -34 7 -74 7 l-73 0 0 -359 c1 -198 4 -362 8 -366 6 -6
39 -7 129 -4 l26 0 0 192 c1 190 8 249 39 309 18 34 59 74 99 95 42 23 136 20
169 -4 48 -35 53 -68 53 -331 0 -167 3 -246 11 -254 13 -13 144 -11 152 2 11
17 3 555 -9 597 -13 49 -68 107 -120 129 -49 20 -137 24 -200 7z"/>
<path d="M25468 13149 c-16 -4 -28 -6 -28 -4 0 3 -31 -12 -70 -31 -87 -45
-143 -101 -183 -184 -52 -108 -46 -246 16 -366 35 -67 150 -153 227 -170 103
-21 227 -7 316 37 l62 31 -16 31 c-10 17 -21 36 -25 41 -4 6 -13 19 -21 30
-12 17 -14 18 -45 1 -123 -63 -253 -48 -328 39 -13 14 -23 28 -23 30 0 3 21
12 48 21 26 10 61 23 77 30 17 7 53 20 80 28 46 14 307 106 347 122 55 22 -57
213 -162 277 -63 38 -201 57 -272 37z m184 -155 c24 -16 53 -45 65 -63 l23
-34 -195 -73 c-108 -40 -205 -76 -216 -79 -20 -7 -21 -4 -15 47 10 88 21 117
61 163 68 77 197 95 277 39z"/>
<path d="M27065 13146 c-92 -29 -183 -97 -219 -163 l-15 -28 -1 25 c-1 14 -3
39 -4 55 -1 17 -3 45 -4 63 l-2 33 -72 -3 -73 -3 0 -360 0 -360 40 -5 c22 -3
58 -3 81 0 l40 5 1 192 c0 188 1 194 27 247 41 84 124 142 213 150 41 3 39 -3
44 101 3 74 6 71 -56 51z"/>
<path d="M28090 13146 c-150 -40 -260 -149 -293 -291 -32 -140 22 -309 126
-388 130 -99 315 -110 475 -28 23 12 42 24 42 27 0 3 -16 32 -36 64 l-36 59
-27 -20 c-61 -45 -178 -56 -253 -24 -38 16 -100 73 -95 88 3 10 237 99 237 90
0 -3 7 0 15 7 8 7 15 9 15 5 0 -4 6 -3 13 2 6 6 71 29 142 53 72 24 133 46
138 50 19 16 -46 150 -104 215 -31 33 -112 82 -151 91 -50 12 -166 12 -208 0z
m162 -128 c33 -7 134 -112 116 -121 -2 -1 -12 -7 -23 -12 -11 -6 -47 -20 -80
-30 -33 -11 -63 -24 -67 -30 -4 -5 -8 -7 -8 -4 0 4 -53 -13 -117 -37 -65 -24
-120 -44 -122 -44 -4 0 5 104 11 133 9 39 68 107 115 130 45 23 109 28 175 15z"/>
<path d="M12256 13043 c26 -49 59 -112 75 -140 16 -29 42 -77 58 -105 16 -29
50 -93 76 -143 64 -120 146 -269 152 -275 2 -3 10 4 16 15 6 11 9 20 6 20 -2
0 5 14 17 30 11 17 56 100 99 185 43 85 96 189 118 230 57 108 137 263 137
267 0 2 -40 3 -89 3 l-89 0 -23 -47 c-12 -27 -24 -52 -25 -58 -1 -5 -19 -48
-41 -95 -22 -47 -46 -101 -53 -120 -8 -19 -26 -60 -41 -90 -26 -53 -27 -54
-37 -30 -5 14 -39 86 -74 160 -35 74 -80 168 -98 208 l-34 72 -99 0 -98 0 47
-87z"/>
<path d="M20440 13126 c0 -2 34 -75 76 -162 42 -88 93 -195 114 -239 21 -44
61 -127 89 -185 28 -57 51 -110 51 -117 0 -7 -11 -37 -25 -67 -14 -30 -25 -60
-25 -65 0 -6 -4 -11 -10 -11 -5 0 -10 -6 -10 -14 0 -8 -6 -27 -14 -43 -21 -41
-76 -163 -76 -168 0 -3 36 -5 81 -5 l80 0 15 38 c8 20 25 57 36 82 11 25 49
110 83 190 34 80 74 171 89 203 14 31 38 85 52 120 14 34 34 80 44 102 39 88
59 136 61 143 0 4 5 15 10 25 6 10 25 53 44 97 l34 80 -74 0 -75 0 -36 -77
c-36 -80 -60 -132 -74 -168 -5 -11 -22 -49 -38 -85 -16 -36 -42 -92 -56 -124
-15 -33 -30 -55 -35 -50 -4 5 -17 32 -29 60 -20 49 -56 129 -107 239 -13 28
-39 85 -59 128 l-35 77 -90 0 c-50 0 -91 -2 -91 -4z"/>
<path d="M21860 13121 c0 -8 32 -86 89 -216 12 -27 26 -59 31 -70 4 -11 19
-45 33 -75 100 -223 157 -357 157 -369 0 -6 5 -11 11 -11 5 0 7 -4 4 -10 -3
-5 -4 -10 0 -10 6 0 42 78 116 255 4 11 20 47 35 80 15 33 29 66 30 73 1 8 10
30 20 50 l17 37 29 -62 c16 -34 29 -66 29 -70 0 -4 6 -15 13 -23 6 -8 36 -69
66 -135 30 -66 64 -140 76 -165 22 -45 22 -45 32 -20 5 14 19 46 30 70 11 25
43 97 70 160 27 63 60 138 72 165 12 28 28 64 35 80 7 17 25 56 39 87 14 31
26 59 26 62 0 3 11 30 25 60 14 30 25 57 25 60 0 3 -35 6 -78 6 l-78 0 -24
-52 c-13 -29 -25 -57 -26 -63 -5 -19 -123 -304 -133 -322 -6 -10 -11 -13 -11
-6 0 6 -14 42 -31 80 -49 108 -56 125 -79 178 -35 81 -43 100 -45 105 0 3 -9
22 -19 43 l-18 37 -69 0 c-38 0 -69 -2 -69 -5 0 -2 11 -29 25 -59 14 -30 25
-59 25 -65 0 -6 -23 -63 -51 -128 -28 -65 -56 -130 -62 -145 -14 -32 -25 -36
-34 -10 -8 24 -60 144 -94 219 -48 105 -62 137 -65 151 -7 34 -27 42 -100 42
-41 0 -74 -4 -74 -9z"/>
</g>
</svg>
