<?xml version="1.0" standalone="no"?>
<!DOCTYPE svg PUBLIC "-//W3C//DTD SVG 20010904//EN"
 "http://www.w3.org/TR/2001/REC-SVG-20010904/DTD/svg10.dtd">
<svg version="1.0" xmlns="http://www.w3.org/2000/svg"
 width="818.000000pt" height="818.000000pt" viewBox="0 0 818.000000 818.000000"
 preserveAspectRatio="xMidYMid meet">
<metadata>
Created by potrace 1.14, written by Peter Selinger 2001-2017
</metadata>
<g transform="translate(0.000000,818.000000) scale(0.100000,-0.100000)"
fill="#000000" stroke="none">
<path d="M2375 5836 c-44 -12 -111 -36 -150 -54 -64 -31 -190 -118 -239 -167
-40 -40 -114 -130 -135 -165 l-21 -35 0 198 0 197 -385 0 c-301 0 -385 -3
-386 -12 0 -7 -2 -20 -3 -28 -2 -8 -7 -40 -11 -70 -7 -58 -9 -73 -19 -160 -4
-30 -9 -66 -11 -80 -2 -14 -7 -47 -10 -75 -2 -27 -7 -61 -9 -75 -5 -30 -17
-115 -21 -150 -3 -30 -17 -137 -20 -165 -2 -11 -6 -47 -10 -79 -4 -33 -9 -67
-10 -75 -2 -9 -4 -27 -4 -40 -1 -38 -9 -21 -16 34 -4 28 -8 57 -10 65 -2 8 -7
35 -10 60 -3 25 -8 56 -10 70 -8 46 -34 224 -41 275 -3 28 -7 57 -9 65 -1 8
-6 40 -10 70 -3 30 -8 66 -10 80 -2 14 -7 45 -10 70 -3 25 -8 52 -10 60 -2 8
-7 40 -10 70 -11 100 34 90 -396 90 -330 0 -379 -2 -380 -15 0 -8 -1 -518 -1
-1132 l-1 -1118 259 0 258 0 3 605 c4 868 4 856 14 790 4 -30 11 -75 14 -100
3 -25 7 -56 10 -70 2 -14 6 -45 10 -70 3 -25 8 -56 10 -70 4 -25 5 -33 25
-175 5 -44 12 -91 15 -105 4 -25 8 -51 20 -145 3 -27 10 -75 15 -105 5 -30 12
-73 14 -95 3 -22 15 -105 26 -185 11 -80 23 -163 25 -185 3 -22 8 -52 11 -67
l6 -28 184 0 c177 0 184 1 185 20 1 11 2 23 3 28 1 4 6 39 10 77 5 39 10 77
11 86 2 9 6 40 10 70 3 30 10 81 15 114 5 33 12 85 15 115 3 30 8 62 10 70 3
8 7 40 9 70 3 30 7 69 10 85 4 27 18 131 32 240 2 22 7 51 9 65 3 14 7 48 10
75 3 28 9 76 15 109 5 32 9 61 8 65 -1 3 1 24 5 46 4 22 9 60 13 85 3 25 8 47
10 49 2 3 4 -103 3 -235 0 -131 0 -463 1 -736 l1 -498 259 0 260 0 2 236 3
236 45 -68 c48 -73 163 -195 220 -233 19 -13 40 -29 45 -35 16 -18 161 -81
209 -90 6 -2 29 -8 51 -14 41 -12 124 -22 205 -25 25 -1 51 -6 58 -10 7 -5 12
-4 12 3 0 6 5 8 13 3 12 -7 36 -9 272 -16 129 -4 225 10 225 33 0 12 -45 24
-59 16 -5 -4 -12 -2 -15 3 -3 4 -36 12 -73 16 -38 4 -77 8 -88 10 -11 2 -42 6
-69 9 -66 7 -77 21 -18 22 56 1 99 7 108 16 3 4 12 4 19 2 7 -3 16 -1 20 5 3
6 14 11 23 11 24 0 150 63 185 92 32 26 110 105 156 158 20 23 31 29 31 19 0
-13 17 -58 63 -169 5 -14 11 -31 13 -39 1 -8 8 -17 14 -21 7 -4 11 -10 11 -14
-3 -17 50 -102 99 -159 30 -35 103 -87 122 -87 8 0 72 19 143 41 71 23 137 43
145 44 8 1 36 -17 63 -41 111 -99 220 -135 322 -106 73 21 132 59 202 131 62
63 78 89 47 77 -18 -7 -17 3 11 214 8 58 17 128 20 155 3 28 8 61 10 75 2 14
7 44 10 68 9 70 16 126 20 152 2 14 11 81 20 150 17 131 18 139 34 260 6 41
13 95 16 120 4 25 8 56 10 70 2 14 11 81 20 150 9 69 18 136 20 150 7 48 15
105 19 145 7 54 16 125 21 155 2 14 9 63 15 110 14 111 17 136 25 193 l7 47
-314 0 c-245 0 -315 -3 -315 -12 0 -26 -15 -184 -19 -208 -2 -14 -6 -55 -9
-90 -8 -106 -16 -183 -20 -220 -2 -19 -7 -64 -10 -100 -3 -36 -8 -83 -10 -105
-2 -22 -7 -76 -10 -120 -3 -44 -8 -98 -10 -120 -3 -22 -7 -76 -11 -120 -3 -44
-7 -100 -9 -125 -2 -25 -7 -92 -10 -150 -8 -121 -12 -160 -18 -167 -3 -2 -5
13 -5 34 0 41 -9 156 -27 353 -3 30 -7 80 -10 110 -4 63 -13 156 -20 215 -2
22 -7 72 -10 110 -4 39 -8 81 -10 95 -2 14 -7 57 -10 95 -4 39 -8 81 -10 95
-2 14 -6 54 -10 90 -4 36 -8 76 -10 90 -2 14 -7 57 -11 95 -3 39 -8 77 -9 85
-2 8 -4 27 -4 43 l-1 27 -315 0 -315 0 6 -32 c3 -18 7 -46 10 -63 11 -85 26
-182 31 -195 3 -8 6 -28 7 -43 l1 -29 -15 23 c-27 41 -167 174 -206 196 -96
54 -117 64 -189 88 -43 15 -103 29 -134 32 -31 3 -76 13 -101 24 -127 53 -285
62 -425 25z m1242 -1508 c1 -15 21 -161 28 -200 3 -16 7 -40 9 -55 2 -16 8
-50 12 -78 6 -46 -2 -61 -11 -19 -2 11 -11 39 -20 64 -9 25 -19 56 -21 70 -3
14 -13 50 -23 80 -13 41 -16 63 -9 90 5 19 10 41 10 48 1 6 7 12 13 12 6 0 12
-6 12 -12z m843 -795 c0 -4 -9 -17 -21 -29 -18 -19 -25 -21 -45 -12 -13 6 -24
15 -24 20 0 4 -6 8 -14 8 -8 0 -18 5 -21 10 -4 6 18 10 59 10 36 0 66 -3 66
-7z"/>
<path d="M7310 5853 c-274 -48 -436 -191 -466 -413 -3 -25 -8 -54 -11 -65 -6
-27 -4 -262 2 -300 22 -130 73 -249 133 -311 59 -60 93 -86 302 -227 307 -205
321 -221 339 -372 15 -131 -1 -228 -45 -273 -22 -22 -77 -26 -112 -8 -46 24
-55 70 -56 283 l-1 183 -276 0 -276 0 3 -149 c6 -361 53 -484 233 -600 57 -36
178 -84 251 -98 53 -10 308 -12 355 -2 28 6 61 12 75 15 14 3 48 13 75 23 179
67 284 169 315 306 7 28 14 59 16 70 16 64 9 398 -9 475 -2 8 -7 33 -12 55 -4
22 -10 45 -14 50 -3 6 -6 12 -6 15 -1 3 -11 27 -23 54 -44 97 -201 228 -463
387 -172 105 -203 129 -230 186 -30 63 -33 218 -5 280 21 47 64 69 111 57 55
-14 59 -34 65 -336 0 -17 20 -18 276 -18 l275 0 -5 148 c-9 288 -43 377 -181
471 -118 81 -239 112 -450 116 -88 1 -171 1 -185 -2z"/>
<path d="M4969 5793 c0 -23 0 -2200 0 -2230 l1 -23 295 0 295 0 0 1135 0 1135
-295 0 c-274 0 -295 -1 -296 -17z"/>
<path d="M5749 5798 c0 -17 0 -2218 0 -2240 1 -17 32 -18 511 -18 l510 0 1 23
c0 19 0 399 -1 420 0 4 -97 7 -215 7 l-215 0 -1 28 c-1 37 -1 443 0 465 1 16
17 17 185 17 l184 0 1 215 1 215 -186 2 -187 3 1 205 c0 113 1 208 1 213 1 4
89 7 196 7 107 0 195 3 195 8 1 12 1 334 1 390 l-1 52 -490 0 c-385 0 -490 -3
-491 -12z"/>
<path d="M352 3230 c-173 -46 -283 -146 -330 -301 -67 -221 23 -440 222 -538
89 -44 171 -60 286 -56 133 4 190 19 285 71 289 162 285 610 -6 773 -121 67
-314 89 -457 51z m278 -84 c85 -21 145 -53 195 -107 58 -62 85 -125 91 -214
15 -200 -99 -350 -295 -389 -206 -41 -392 34 -471 189 -33 65 -35 73 -34 169
0 120 18 169 88 244 96 102 269 146 426 108z"/>
<path d="M1143 2790 l-1 -440 54 0 54 0 0 205 c0 157 3 205 13 206 6 1 134 3
282 4 149 1 276 3 283 4 7 1 12 17 12 46 l0 45 -295 0 -296 0 3 137 3 138 345
0 345 0 3 48 3 47 -404 0 -404 0 0 -440z"/>
<path d="M2423 2790 l0 -442 271 4 c248 4 277 7 341 27 188 62 278 179 292
382 14 212 -84 373 -269 440 -59 21 -83 23 -349 27 l-286 4 0 -442z m537 336
c64 -12 146 -54 182 -95 53 -60 72 -115 74 -219 5 -190 -69 -300 -232 -348
-45 -13 -103 -17 -244 -19 -102 -1 -191 0 -197 3 -18 6 -19 678 -2 684 21 7
373 1 419 -6z"/>
<path d="M3451 2790 l0 -440 399 0 c442 0 410 -5 402 65 l-4 30 -344 0 -344 0
0 157 0 158 285 0 285 0 -2 47 -3 48 -282 0 -283 0 0 140 0 140 338 0 337 0 1
48 1 47 -393 0 -393 0 0 -440z"/>
<path d="M4351 2790 l0 -440 402 0 403 0 -2 43 c-1 23 -2 44 -3 47 0 3 -156 5
-346 5 l-345 0 0 392 0 393 -54 0 -54 0 -1 -440z"/>
<path d="M5243 2791 l0 -441 53 0 54 0 0 195 0 195 173 0 173 0 142 -195 143
-195 65 0 c50 0 63 3 57 13 -4 6 -67 92 -140 190 -73 99 -133 182 -133 185 0
4 17 8 38 9 20 2 66 17 102 35 49 26 71 43 92 79 58 93 47 211 -27 284 -75 74
-96 78 -466 83 l-326 4 0 -441z m637 329 c65 -18 98 -45 110 -90 25 -93 -13
-152 -120 -186 -26 -8 -486 -14 -507 -6 -17 6 -19 288 -2 294 30 10 478 0 519
-12z"/>
<path d="M6598 3163 c-20 -38 -77 -149 -128 -248 -51 -99 -137 -267 -192 -372
l-99 -193 60 0 61 0 57 115 58 115 282 0 283 0 57 -115 58 -115 57 0 c32 0 58
2 58 5 0 3 -57 117 -127 253 -70 136 -170 331 -222 434 l-96 188 -66 0 -65 0
-36 -67z m221 -261 c61 -122 111 -223 111 -225 0 -1 -103 -2 -230 -2 -126 0
-230 3 -230 7 0 19 225 457 231 450 4 -4 57 -107 118 -230z"/>
<path d="M7135 3188 c20 -24 58 -68 83 -98 26 -30 54 -62 62 -70 8 -8 69 -78
135 -155 65 -77 123 -143 128 -146 5 -3 8 -88 8 -188 l-1 -181 55 0 55 0 0
176 0 177 69 81 c38 44 139 162 225 261 l156 180 -67 3 c-59 3 -69 0 -87 -20
-12 -13 -92 -106 -180 -208 -87 -102 -163 -185 -170 -185 -7 0 -92 93 -190
208 l-178 207 -70 0 -70 0 37 -42z"/>
</g>
</svg>
