<svg width="302" height="87" viewBox="0 0 302 87" fill="none" xmlns="http://www.w3.org/2000/svg">
<path d="M16.1304 0.844346C10.0104 3.44535 3.20194 10.7128 1.05994 19.8928C-1.61756 31.4443 9.62794 36.3403 10.5459 34.7338C11.6169 32.8213 8.55694 32.2093 7.86844 26.2423C7.02694 18.5158 10.6224 9.79485 15.2124 6.04635C16.0539 5.35785 16.0539 6.35235 16.0539 8.11184C16.0539 11.4013 15.9009 40.5478 15.9009 46.6678C15.9009 54.9298 15.5949 57.5308 14.9829 60.0553C14.3709 62.6563 13.3764 64.4158 14.1414 65.1043C14.9829 65.8693 18.5784 64.0333 20.6439 61.1263C23.1684 57.6073 24.0099 53.4763 24.1629 48.8863C24.3159 43.3783 24.3159 34.6573 24.3159 29.7613C24.3159 25.1713 24.3924 11.8603 24.2394 3.82785C24.1629 1.83885 18.7314 -0.226654 16.1304 0.844346ZM234.691 39.4768C234.461 43.7608 233.543 47.1268 232.396 49.4983C230.101 54.0883 225.358 55.4653 223.369 48.8863C222.298 45.2908 222.221 39.3238 222.986 34.2748C223.751 29.1493 226.046 25.3243 229.718 25.7068C233.39 26.0893 235.073 30.7558 234.691 39.4768ZM173.108 66.0988C173.032 73.2133 171.961 79.4863 169.513 81.2458C166.07 83.8468 161.557 81.8578 162.475 76.6558C163.316 72.0658 167.294 67.3228 173.108 61.5853C173.108 61.6618 173.108 62.9623 173.108 66.0988ZM172.114 39.4003C171.884 43.3018 170.89 47.2033 169.819 49.4218C167.524 54.0118 162.781 55.4653 160.792 48.8098C159.415 44.2963 159.797 38.4823 160.409 34.8103C161.251 30.0673 163.393 25.6303 167.141 25.6303C170.89 25.7068 172.649 29.7613 172.114 39.4003ZM136.465 39.4003C136.235 43.5313 135.47 46.9738 134.17 49.4983C131.798 54.0118 127.208 55.4653 125.143 48.8863C123.689 44.1433 124.148 37.7173 124.76 34.1983C125.678 28.9963 127.973 25.3243 131.492 25.7068C135.164 26.0893 136.924 30.7558 136.465 39.4003ZM300.022 44.2198C299.104 44.2198 298.721 45.1378 298.415 46.6678C297.268 52.0228 296.044 53.2468 294.437 53.2468C292.678 53.2468 291.071 50.5693 290.689 45.2143C290.383 41.0068 290.383 33.2803 290.842 25.6303C290.918 24.0238 290.459 22.4938 286.252 20.9638C284.416 20.2753 281.815 19.3573 280.438 22.4938C276.689 31.5208 275.236 38.6353 274.93 41.5423C274.93 41.6953 274.7 41.6953 274.7 41.3893C274.471 39.0943 274.012 34.8103 273.935 25.9363C273.935 24.1768 273.553 22.7233 271.64 21.4993C270.416 20.7343 266.668 19.3573 265.291 20.9638C264.143 22.3408 262.766 25.9363 261.313 30.2203C260.165 33.7393 259.4 36.1108 259.4 36.1108C259.4 36.1108 259.4 26.7013 259.4 23.1058C259.4 21.7288 258.482 21.2698 258.176 21.1933C256.952 20.8108 254.428 20.1988 253.433 20.1988C252.133 20.1988 251.827 20.8873 251.827 21.9583C251.827 22.1113 251.597 34.3513 251.597 42.9193C251.597 43.3018 251.597 43.6843 251.597 44.1433C250.909 48.1213 248.537 53.4763 246.013 53.4763C243.488 53.4763 242.264 51.2578 242.264 41.0068C242.264 35.0398 242.417 32.4388 242.494 28.1548C242.57 25.7068 242.647 23.7943 242.647 23.3353C242.647 22.0348 240.352 21.3463 239.281 21.1168C238.21 20.8873 237.292 20.7343 236.527 20.8108C235.532 20.8873 234.767 21.5758 234.767 22.4938C234.767 23.0293 234.767 23.9473 234.767 23.9473C233.467 21.8818 231.325 20.4283 229.871 19.9693C226.046 18.8218 222.068 19.8163 219.008 24.0238C216.637 27.3898 215.183 31.1383 214.571 36.6463C214.189 40.6243 214.265 44.6788 215.03 48.1213C214.112 51.9463 212.506 53.5528 210.67 53.5528C208.069 53.5528 206.156 49.2688 206.386 41.8483C206.539 36.9523 207.533 33.5098 208.604 28.5373C209.063 26.3953 208.681 25.3243 207.763 24.2533C206.921 23.2588 205.085 22.7998 202.484 23.4118C200.648 23.8708 197.971 24.3298 195.523 24.7123C195.523 24.7123 195.676 24.1003 195.752 23.1058C196.364 17.6743 190.474 18.1333 188.638 19.8928C187.49 20.8873 186.725 22.1113 186.496 24.3298C186.037 27.7723 188.867 29.4553 188.867 29.4553C187.949 33.7393 185.654 39.2473 183.283 43.3018C182.059 45.4438 181.064 47.0503 179.84 48.7333C179.84 48.1213 179.84 47.4328 179.84 46.8208C179.84 37.8703 179.917 30.8323 179.993 28.3078C180.07 25.8598 180.146 23.9473 180.146 23.5648C180.146 22.5703 179.534 22.2643 178.387 21.7288C177.316 21.3463 176.092 21.0403 174.791 20.9638C173.185 20.8108 172.19 21.7288 172.19 22.7233C172.19 22.9528 172.19 24.1003 172.19 24.1003C170.89 22.0348 168.748 20.5813 167.294 20.1223C163.469 18.9748 159.491 19.9693 156.431 24.1768C154.06 27.5428 152.453 32.2093 151.994 36.7228C151.612 40.9303 151.688 44.5258 152.224 47.5093C151.612 50.4928 149.852 53.6293 147.863 53.6293C145.339 53.6293 143.885 51.4108 143.885 41.1598C143.885 35.1928 144.038 32.5918 144.115 28.3078C144.191 25.8598 144.268 23.9473 144.268 23.4883C144.268 22.1878 141.973 21.4993 140.902 21.2698C139.754 21.0403 138.836 20.8873 138.071 20.9638C137.077 21.0403 136.388 21.8818 136.388 22.5703V24.1003C135.088 22.0348 132.946 20.5813 131.492 20.1223C127.667 18.9748 123.689 20.0458 120.629 24.1768C118.64 26.9308 117.034 29.9908 116.192 36.6463C115.963 38.5588 115.886 40.3948 115.886 42.0778C115.121 46.8973 111.602 52.4818 108.772 52.4818C107.089 52.4818 105.482 49.2688 105.482 42.3073C105.482 33.1273 106.018 20.0458 106.171 18.7453C106.171 18.7453 109.766 18.6688 110.455 18.6688C112.214 18.6688 113.897 18.6688 116.269 18.5923C117.493 18.5158 118.64 14.2318 117.416 13.6963C116.881 13.4668 112.903 13.2373 111.296 13.2373C109.996 13.2373 106.324 12.9313 106.324 12.9313C106.324 12.9313 106.63 4.21035 106.706 3.29235C106.783 2.52735 105.788 2.14485 105.253 1.91535C103.876 1.30335 102.652 1.07385 101.198 0.767847C99.2094 0.385347 98.2914 0.767844 98.0619 2.45084C97.7559 5.05184 97.6794 12.6253 97.6794 12.6253C96.2259 12.6253 91.1004 12.3193 89.6469 12.3193C88.2699 12.3193 86.8164 18.2863 88.6524 18.2863C90.8709 18.3628 94.6959 18.4393 97.2204 18.5158C97.2204 18.5158 97.1439 31.8268 97.1439 35.9578C97.1439 36.4168 97.1439 36.7993 97.1439 37.2583C95.7669 44.5258 90.8709 48.4273 90.8709 48.4273C91.9419 43.6078 89.7999 40.0123 85.8984 36.9523C84.4449 35.8048 81.6144 33.6628 78.4779 31.3678C78.4779 31.3678 80.3139 29.5318 81.9204 25.9363C83.0679 23.3353 83.1444 20.4283 80.3139 19.8163C75.6474 18.7453 71.8224 22.1878 70.6749 25.8598C69.7569 28.6903 70.2924 30.7558 71.9754 32.9743C72.1284 33.1273 72.2049 33.2803 72.3579 33.4333C71.2869 35.4988 69.8334 38.1763 68.6094 40.3183C65.2434 46.2088 62.6424 50.8753 60.7299 50.8753C59.1999 50.8753 59.1999 46.1323 59.1999 41.7718C59.1999 37.9468 59.5059 32.2093 59.7354 26.3188C59.8119 24.3298 58.8174 23.2588 57.2109 22.2643C56.2164 21.6523 54.0744 20.4283 52.8504 20.4283C51.0144 20.4283 45.6594 20.6578 40.6104 35.2693C39.9984 37.1053 38.6979 40.4713 38.6979 40.4713L38.7744 22.9528C38.7744 22.5703 38.5449 22.1113 38.0859 21.8818C37.2444 21.4228 34.9494 20.5048 32.9604 20.5048C31.9659 20.5048 31.5069 20.9638 31.5069 21.8053L31.3539 49.1923C31.3539 51.2578 31.4304 53.7058 31.5834 54.7768C31.8129 55.8478 32.1189 56.6893 32.5014 57.2248C32.8839 57.7603 33.4194 58.1428 34.1844 58.2958C34.9494 58.4488 38.9274 58.9843 39.1569 57.4543C39.3864 55.6183 39.3864 53.6293 41.5284 46.2853C44.8179 34.8103 49.0254 29.1493 51.0909 27.1603C51.4734 26.7778 51.8559 26.7778 51.8559 27.3898C51.7794 29.9143 51.4734 36.1873 51.2439 41.5423C50.7084 55.8478 53.3094 58.5253 57.0579 58.5253C59.8884 58.5253 63.9429 55.6948 68.2269 48.5038C70.9044 44.0668 73.5054 39.6298 75.4179 36.4933C76.7184 37.7173 78.1719 39.0178 79.6254 40.3948C82.9914 43.6078 84.1389 46.6678 83.3739 49.5748C82.8384 51.7933 80.6964 54.0883 76.8714 51.8698C75.8004 51.2578 75.2649 50.7223 74.1939 49.9573C73.5819 49.5748 72.6639 49.4218 72.1284 49.8808C70.6749 50.9518 69.9099 52.3288 69.4509 54.0118C68.9919 55.6183 70.6749 56.5363 72.3579 57.3013C73.8114 57.9898 76.9479 58.5253 79.0134 58.6018C86.8164 58.8313 93.1659 54.8533 97.5264 44.3728C98.2914 53.3998 101.657 58.5253 107.395 58.5253C111.296 58.5253 115.121 53.5528 116.804 48.5803C117.263 50.5693 118.028 52.3288 118.946 53.7823C123.383 60.8203 132.028 59.2903 136.388 53.3233C137.765 51.4873 137.918 50.7988 137.918 50.7988C138.53 56.4598 143.12 58.4488 145.721 58.4488C148.628 58.4488 151.688 57.0718 153.754 52.3288C153.983 52.8643 154.289 53.3233 154.595 53.7823C159.032 60.8203 167.677 59.2903 172.037 53.3233C172.267 53.0173 172.42 52.7878 172.573 52.5583L172.726 56.3068C172.726 56.3068 170.278 58.6018 168.748 59.9788C162.016 66.0988 156.967 70.7653 156.584 76.1968C156.125 83.0818 161.71 85.6828 165.994 85.9888C170.507 86.3713 174.332 83.8468 176.704 80.4043C178.769 77.3443 180.146 70.7653 180.07 64.1863C179.993 61.5853 179.993 58.2193 179.917 54.7003C182.288 51.9463 184.889 48.5038 187.337 44.4493C190.015 40.0123 192.845 34.1218 194.299 29.5318C194.299 29.5318 196.747 29.5318 199.424 29.3788C200.266 29.3023 200.495 29.5318 200.342 30.1438C200.189 30.9088 196.976 43.0723 199.883 51.1813C201.872 56.6893 206.309 58.5253 208.91 58.5253C211.97 58.5253 214.954 56.2303 216.484 52.7113C216.637 53.0938 216.866 53.4763 217.096 53.7823C221.533 60.8203 230.177 59.2903 234.538 53.3233C235.532 51.9463 236.068 50.7988 236.068 50.7988C236.986 56.6893 241.576 58.4488 244.177 58.4488C246.931 58.4488 249.455 57.3013 251.597 52.4053C251.674 54.6238 251.827 56.3833 252.056 56.9188C252.209 57.2248 252.974 57.6838 253.51 57.9133C256.034 58.8313 258.559 58.3723 259.477 58.2193C260.165 58.0663 260.624 57.5308 260.701 56.2303C260.854 52.7113 260.777 46.7443 261.848 42.3073C263.684 34.8868 265.291 31.9798 266.132 30.6028C266.591 29.8378 267.05 29.6848 267.127 30.5263C267.127 32.2093 267.28 37.2583 267.968 43.9903C268.504 48.9628 269.192 51.8698 269.728 52.7878C271.258 55.4653 273.094 55.5418 274.624 55.5418C275.618 55.5418 277.607 55.3123 277.378 53.5528C277.301 52.7113 277.454 47.6623 279.214 40.3183C280.361 35.5753 282.274 31.2148 283.039 29.6848C283.268 29.0728 283.421 29.5318 283.421 29.6848C283.268 32.9743 282.962 43.6843 284.263 49.5748C286.099 57.5308 291.301 58.4488 293.137 58.4488C297.038 58.4488 300.251 55.4653 301.322 47.6623C301.552 45.6733 301.169 44.2198 300.022 44.2198Z" fill="white"/>
</svg>
