<svg width="300" height="72" viewBox="0 0 300 72" fill="none" xmlns="http://www.w3.org/2000/svg">
<path d="M129.634 25.9013H138.761V29.9706H138.935C141.144 26.7732 143.993 25.0295 148.12 25.0295C154.631 25.0295 158.467 29.6799 158.467 36.3069V55.6647H148.992V38.2254C148.992 35.0861 147.423 32.9351 144.342 32.9351C141.203 32.9351 139.11 35.5512 139.11 39.2134V55.6647H129.634V25.9013Z" fill="white"/>
<path d="M128.602 17.9385C128.602 14.7992 126.057 12.2546 122.918 12.2546C119.779 12.2546 117.234 14.7992 117.234 17.9385C117.234 21.0775 119.779 23.6221 122.918 23.6221C126.057 23.6221 128.602 21.0775 128.602 17.9385Z" fill="white"/>
<path d="M225.11 25.4715C224.84 25.4471 224.53 25.4363 224.167 25.4363C220.563 25.4363 218.121 27.0058 216.028 30.5518H215.854V25.9014H206.786V55.6644H216.261V42.2943C216.261 36.0993 219.692 33.2287 225.11 33.7295V25.4715Z" fill="white"/>
<path d="M271.61 36.888C267.831 36.1906 264.459 35.9 264.459 33.8073C264.459 31.9469 266.262 31.0751 268.587 31.0751C271.202 31.0751 273.005 31.8889 273.354 34.5631H282.073C281.608 28.6918 277.074 25.0293 268.645 25.0293C261.611 25.0293 255.798 28.2848 255.798 34.5631C255.798 41.5384 261.32 42.9337 266.494 43.8059C270.447 44.5035 274.051 44.7941 274.051 47.468C274.051 49.3865 272.249 50.4329 269.401 50.4329C266.543 50.4329 264.653 49.2238 264.073 46.7707H255.044C255.709 52.8892 261.08 56.5947 269.459 56.5947C277.249 56.5947 283.003 53.2232 283.003 46.7126C283.003 39.0971 276.841 37.7601 271.61 36.888Z" fill="white"/>
<path d="M239.809 31.7725C242.89 31.7725 245.099 34.0397 245.448 37.586H233.705C234.344 34.0397 236.205 31.7725 239.809 31.7725ZM240.332 49.735C236.437 49.735 234.228 47.2356 233.647 43.2244H255.039C255.097 37.179 253.354 32.0051 249.807 28.7499C247.25 26.4247 243.878 25.0294 239.634 25.0294C230.566 25.0294 224.346 31.8306 224.346 40.725C224.346 49.735 230.391 56.5367 240.216 56.5367C243.994 56.5367 247.017 55.5485 249.517 53.8045C252.133 52.0024 253.877 49.4447 254.516 46.7708H245.273C244.459 48.6309 242.832 49.735 240.332 49.735Z" fill="white"/>
<path d="M299.692 48.6461C299.253 48.6635 298.663 48.689 298.121 48.689C296.087 48.689 294.808 48.1074 294.808 45.7822V31.8306H299.692V25.9013H294.808V16.484H285.565V25.9013H282.657V31.8306H285.565V47.8168C285.565 54.2115 289.518 56.0133 295.041 56.0133C297.148 56.0133 298.74 55.8555 299.692 55.6699V48.6461Z" fill="white"/>
<path d="M175.389 48.6596C175.011 48.6743 174.575 48.689 174.167 48.689C172.133 48.689 170.854 48.1074 170.854 45.7822V31.8306H175.389V25.9013H170.854V16.484H161.611V25.9013H158.529V31.8306H161.611V47.8168C161.611 54.2115 165.564 56.0133 171.086 56.0133C172.955 56.0133 174.418 55.889 175.389 55.7315V48.6596Z" fill="white"/>
<path d="M196.029 37.5859C195.68 34.0398 193.47 31.7724 190.39 31.7724C186.785 31.7724 184.925 34.0398 184.286 37.5859H196.029ZM174.927 40.7249C174.927 31.8307 181.147 25.0296 190.215 25.0296C194.459 25.0296 197.831 26.4246 200.388 28.7498C203.934 32.0052 205.678 37.1788 205.62 43.2246H184.228C184.809 47.2354 187.018 49.7352 190.913 49.7352C193.412 49.7352 195.04 48.6308 195.854 46.7706H205.097C204.457 49.4445 202.714 52.0023 200.097 53.8047C197.598 55.5484 194.575 56.5366 190.797 56.5366C180.972 56.5366 174.927 49.7352 174.927 40.7249Z" fill="white"/>
<path d="M101.725 33.633C105.445 33.633 107.538 31.4239 107.538 28.1101C107.538 24.7969 105.387 22.7623 101.725 22.7623H94.4577V33.633H101.725ZM84.8647 14.1007H101.319C106.376 14.1007 110.097 15.4958 112.655 17.9374C115.329 20.4368 116.84 23.9831 116.84 28.1685C116.84 36.1324 111.318 41.7714 102.772 41.7714H94.4577V55.6647H84.8647V14.1007Z" fill="white"/>
<path d="M71.8572 36.1322C71.8572 55.89 55.8402 71.907 36.0824 71.907C16.3246 71.907 0.307617 55.89 0.307617 36.1322C0.307617 16.3741 16.3246 0.357422 36.0824 0.357422C55.8402 0.357422 71.8572 16.3741 71.8572 36.1322Z" fill="black"/>
<path d="M36.0824 0.357178C16.3246 0.357178 0.307617 16.3742 0.307617 36.132C0.307617 51.288 9.73724 64.2443 23.0452 69.4569C22.7325 66.6264 22.4498 62.2733 23.1692 59.1833C23.8193 56.3912 27.3642 41.4009 27.3642 41.4009C27.3642 41.4009 26.2941 39.2578 26.2941 36.0894C26.2941 31.1149 29.1774 27.4012 32.7674 27.4012C35.8196 27.4012 37.2938 29.6927 37.2938 32.4405C37.2938 35.51 35.3396 40.0991 34.3311 44.3519C33.4883 47.9126 36.1167 50.8164 39.6287 50.8164C45.9871 50.8164 50.8748 44.112 50.8748 34.4343C50.8748 25.8686 44.7199 19.8798 35.9314 19.8798C25.7522 19.8798 19.7774 27.5147 19.7774 35.405C19.7774 38.4798 20.9619 41.7768 22.4399 43.5692C22.7323 43.9235 22.7751 44.2337 22.688 44.5953C22.4164 45.7252 21.8129 48.1551 21.6944 48.6525C21.5384 49.3073 21.1759 49.4463 20.4979 49.1308C16.0299 47.051 13.2364 40.5185 13.2364 35.2715C13.2364 23.9865 21.4358 13.6226 36.8742 13.6226C49.2845 13.6226 58.9287 22.466 58.9287 34.2845C58.9287 46.6138 51.1548 56.5364 40.3648 56.5364C36.7396 56.5364 33.3317 54.6531 32.1651 52.4284C32.1651 52.4284 30.3713 59.2589 29.9364 60.9328C29.1287 64.0402 26.9484 67.9352 25.49 70.3114C28.8372 71.3478 32.3944 71.9067 36.0824 71.9067C55.8405 71.9067 71.8575 55.8897 71.8575 36.132C71.8575 16.3742 55.8405 0.357178 36.0824 0.357178Z" fill="white"/>
</svg>
