<svg width="290" height="202" viewBox="0 0 290 202" fill="none" xmlns="http://www.w3.org/2000/svg">
<mask id="mask0_14713_152" style="mask-type:alpha" maskUnits="userSpaceOnUse" x="0" y="0" width="290" height="202">
<path d="M0.0639648 0.00646973H289.002V201.838H0.0639648V0.00646973Z" fill="#FFFFFE"/>
</mask>
<g mask="url(#mask0_14713_152)">
<path fill-rule="evenodd" clip-rule="evenodd" d="M120.037 22.1018C129.363 12.3926 142.344 6.38016 156.685 6.38016C175.806 6.38016 192.377 17.0029 201.3 32.8307C209.221 29.2899 217.8 27.4618 226.476 27.4662C260.894 27.4662 288.832 55.6164 288.832 90.3527C288.832 125.089 260.894 153.239 226.476 153.239C222.27 153.239 218.169 152.816 214.154 152.018C206.346 165.933 191.421 175.387 174.425 175.387C167.505 175.401 160.674 173.831 154.454 170.798C146.54 189.388 128.11 202.454 106.652 202.454C84.2382 202.454 65.2235 188.326 57.8938 168.461C54.6316 169.15 51.3063 169.496 47.9722 169.494C21.3092 169.494 -0.254883 147.611 -0.254883 120.736C-0.254883 102.677 9.45427 86.9555 23.8587 78.4574C20.8028 71.4177 19.2298 63.824 19.2378 56.1497C19.2378 25.1314 44.4136 0.0617676 75.4319 0.0617676C93.5968 0.0617676 109.85 8.71928 120.047 22.157" fill="#FFFFFE"/>
<path fill-rule="evenodd" clip-rule="evenodd" d="M41.8538 104.959C41.6721 105.433 41.9186 105.531 41.977 105.615C42.5198 106.008 43.0711 106.293 43.6235 106.613C46.5766 108.174 49.3598 108.631 52.2704 108.631C58.1979 108.631 61.884 105.476 61.884 100.399V100.299C61.884 95.6034 57.7199 93.8932 53.832 92.6716L53.3231 92.5069C50.3806 91.553 47.8418 90.7223 47.8418 88.789V88.6902C47.8418 87.033 49.329 85.8114 51.6235 85.8114C54.1729 85.8114 57.211 86.6602 59.155 87.7341C59.155 87.7341 59.7307 88.1059 59.94 87.5504C60.0537 87.2497 61.0448 84.5973 61.151 84.2998C61.2636 83.9886 61.066 83.7538 60.8631 83.6327C58.6324 82.273 55.5518 81.3488 52.365 81.3488L51.7733 81.3509C46.3451 81.3509 42.5528 84.6334 42.5528 89.3286V89.4295C42.5528 94.3797 46.7381 95.9944 50.6473 97.1097L51.2761 97.3052C54.123 98.1805 56.5875 98.9411 56.5875 100.938V101.038C56.5875 102.876 54.9835 104.246 52.4128 104.246C51.4132 104.246 48.2274 104.229 44.775 102.047C44.3576 101.804 44.1196 101.629 43.7977 101.432C43.6278 101.329 43.2029 101.143 43.018 101.7L41.8495 104.95L41.8538 104.959ZM128.637 104.95C128.455 105.424 128.702 105.523 128.762 105.607C129.303 106 129.857 106.285 130.409 106.604C133.362 108.166 136.145 108.623 139.056 108.623C144.983 108.623 148.669 105.468 148.669 100.39V100.29C148.669 95.5949 144.516 93.8847 140.617 92.6631L140.109 92.4984C137.166 91.5445 134.627 90.7138 134.627 88.7805V88.6817C134.627 87.0245 136.114 85.8029 138.409 85.8029C140.958 85.8029 143.986 86.6517 145.94 87.7256C145.94 87.7256 146.516 88.0974 146.726 87.5419C146.839 87.2412 147.831 84.5888 147.927 84.2913C148.041 83.9801 147.842 83.7453 147.64 83.6242C145.409 82.2645 142.329 81.3403 139.142 81.3403L138.549 81.3425C133.121 81.3425 129.329 84.6249 129.329 89.3201V89.421C129.329 94.3712 133.514 95.9859 137.423 97.1012L138.051 97.2967C140.908 98.172 143.362 98.9326 143.362 100.93V101.03C143.362 102.867 141.758 104.238 139.188 104.238C138.186 104.238 134.992 104.221 131.55 102.039C131.132 101.795 130.888 101.628 130.571 101.424C130.464 101.356 129.964 101.16 129.793 101.691L128.624 104.942L128.637 104.95ZM187.899 94.999C187.899 97.8671 187.364 100.13 186.316 101.734C185.271 103.317 183.692 104.092 181.494 104.092C179.295 104.092 177.723 103.323 176.692 101.744C175.654 100.151 175.131 97.8778 175.131 95.0096C175.131 92.1415 175.657 89.8895 176.692 88.3067C177.72 86.7345 179.284 85.9803 181.494 85.9803C183.703 85.9803 185.275 86.742 186.316 88.3067C187.37 89.8895 187.899 92.1415 187.899 95.0096V94.999ZM192.849 89.6877C192.362 88.0411 191.606 86.5964 190.597 85.3855C189.587 84.1745 188.313 83.1972 186.794 82.4961C185.286 81.7897 183.501 81.4338 181.483 81.4338C179.465 81.4338 177.691 81.7918 176.172 82.4961C174.663 83.2014 173.378 84.1745 172.369 85.3855C171.362 86.5964 170.605 88.0411 170.117 89.6877C169.633 91.3236 169.388 93.1082 169.388 95.0096C169.388 96.9111 169.633 98.6957 170.117 100.332C170.602 101.978 171.36 103.423 172.369 104.634C173.379 105.845 174.663 106.811 176.172 107.502C177.691 108.19 179.475 108.541 181.483 108.541C183.491 108.541 185.275 108.19 186.784 107.502C188.292 106.814 189.577 105.845 190.587 104.634C191.595 103.423 192.35 101.978 192.839 100.332C193.321 98.6957 193.566 96.9111 193.566 95.0096C193.566 93.1188 193.321 91.3236 192.839 89.6877H192.849ZM233.524 103.285C233.361 102.804 232.892 102.985 232.892 102.985C232.172 103.26 231.404 103.515 230.586 103.643C229.762 103.772 228.844 103.837 227.878 103.837C225.488 103.837 223.575 103.124 222.216 101.713C220.845 100.3 220.081 98.0265 220.091 94.9459C220.099 92.1415 220.776 90.0382 221.993 88.4236C223.193 86.8301 225.041 86.0016 227.485 86.0016C229.524 86.0016 231.086 86.2385 232.722 86.7505C232.722 86.7505 233.109 86.9194 233.295 86.4084C233.73 85.2081 234.05 84.3476 234.517 83.0304C234.649 82.6533 234.326 82.494 234.208 82.4483C233.566 82.1976 232.051 81.7865 230.904 81.6133C229.831 81.4497 228.588 81.3648 227.186 81.3648C225.104 81.3648 223.256 81.7206 221.673 82.426C220.09 83.1303 218.752 84.1044 217.689 85.3153C216.627 86.5263 215.82 87.971 215.278 89.6175C214.742 91.2534 214.471 93.0487 214.471 94.9501C214.471 99.0505 215.575 102.375 217.764 104.808C219.952 107.251 223.245 108.483 227.537 108.483C230.075 108.483 232.678 107.97 234.548 107.23C234.548 107.23 234.905 107.058 234.749 106.642L233.528 103.285H233.524ZM242.185 92.2371C242.422 90.6437 242.859 89.3159 243.545 88.2855C244.572 86.7133 246.137 85.8529 248.336 85.8529C250.535 85.8529 251.99 86.7175 253.031 88.2855C253.722 89.3212 254.023 90.6968 254.136 92.2371L242.132 92.235L242.185 92.2371ZM258.863 88.7316C258.441 87.1488 257.397 85.5448 256.717 84.8118C255.634 83.654 254.582 82.836 253.53 82.3899C252.012 81.7443 250.379 81.4129 248.729 81.4158C246.636 81.4158 244.735 81.7695 243.195 82.4886C241.654 83.2131 240.358 84.1989 239.338 85.4311C238.32 86.6634 237.554 88.1187 237.065 89.7864C236.577 91.433 236.33 93.2388 236.33 95.1297C236.33 97.063 236.586 98.8582 237.09 100.484C237.598 102.119 238.417 103.553 239.522 104.743C240.627 105.944 242.04 106.878 243.739 107.537C245.428 108.19 247.479 108.529 249.826 108.522C254.67 108.506 257.22 107.428 258.261 106.843C258.447 106.739 258.622 106.56 258.403 106.042L257.309 102.972C257.141 102.515 256.678 102.68 256.678 102.68C255.478 103.129 253.778 103.934 249.794 103.923C247.192 103.919 245.269 103.151 244.058 101.947C242.826 100.715 242.21 98.9199 242.114 96.3704L258.898 96.3831C258.898 96.3831 259.34 96.3789 259.386 95.9476C259.404 95.7692 259.96 92.5059 258.885 88.7348L258.863 88.7316ZM108.021 92.2371C108.257 90.6437 108.695 89.3159 109.38 88.2855C110.409 86.7133 111.972 85.8529 114.171 85.8529C116.37 85.8529 117.825 86.7175 118.866 88.2855C119.556 89.3212 119.857 90.6968 119.971 92.2371L107.967 92.235L108.021 92.2371ZM124.698 88.7316C124.278 87.1488 123.232 85.5448 122.552 84.8118C121.469 83.654 120.417 82.836 119.366 82.3899C117.847 81.7443 116.214 81.4129 114.564 81.4158C112.471 81.4158 110.57 81.7695 109.03 82.4886C107.489 83.2131 106.193 84.1989 105.174 85.4311C104.157 86.6634 103.389 88.1187 102.9 89.7864C102.413 91.433 102.167 93.2388 102.167 95.1297C102.167 97.063 102.421 98.8582 102.928 100.484C103.436 102.119 104.256 103.553 105.35 104.743C106.455 105.944 107.868 106.878 109.567 107.537C111.256 108.19 113.296 108.529 115.654 108.522C120.498 108.506 123.047 107.428 124.088 106.843C124.273 106.739 124.45 106.56 124.23 106.042L123.136 102.972C122.967 102.515 122.504 102.68 122.504 102.68C121.303 103.129 119.604 103.934 115.62 103.923C113.028 103.919 111.095 103.151 109.884 101.947C108.652 100.715 108.035 98.9199 107.94 96.3704L124.724 96.3831C124.724 96.3831 125.166 96.3789 125.211 95.9476C125.229 95.7692 125.786 92.5059 124.71 88.7348L124.698 88.7316ZM71.7971 103.179C71.1395 102.654 71.0482 102.525 70.8304 102.184C70.4979 101.671 70.328 100.941 70.328 100.007C70.328 98.5406 70.8166 97.4783 71.8258 96.7666C71.8151 96.7688 73.2705 95.5131 76.691 95.5556C78.2134 95.5829 79.7324 95.7124 81.2375 95.9434V103.56H81.2396C81.2396 103.56 79.1151 104.018 76.7143 104.162C73.3044 104.367 71.796 103.181 71.8066 103.184L71.7971 103.179ZM78.4681 91.3873C77.7883 91.3374 76.9066 91.3129 75.855 91.3129C74.4209 91.3129 73.0293 91.4914 71.7333 91.8419C70.4268 92.1946 69.2476 92.7406 68.2385 93.4672C67.2265 94.1891 66.3942 95.1341 65.8059 96.2291C65.2121 97.3339 64.9093 98.6299 64.9093 100.096C64.9093 101.583 65.1674 102.868 65.6773 103.92C66.177 104.963 66.9292 105.865 67.8656 106.544C68.7972 107.222 69.9477 107.723 71.2755 108.02C72.5927 108.321 74.0799 108.473 75.7158 108.473C77.4367 108.473 79.1469 108.328 80.8041 108.049C82.2155 107.806 83.6215 107.532 85.0213 107.229C85.5801 107.1 86.2004 106.932 86.2004 106.932C86.6147 106.826 86.5828 106.383 86.5828 106.383L86.5733 91.0867C86.5733 87.7299 85.6767 85.2336 83.907 83.6933C82.1436 82.153 79.5623 81.3775 76.2161 81.3775C74.9627 81.3775 72.9337 81.5475 71.7227 81.7907C71.7227 81.7907 68.0685 82.5003 66.5601 83.6816C66.5601 83.6816 66.2287 83.8855 66.4092 84.3476L67.599 87.5344C67.7466 87.9477 68.1492 87.8064 68.1492 87.8064C68.1492 87.8064 68.2757 87.7565 68.4244 87.6683C71.6431 85.9155 75.7222 85.9686 75.7222 85.9686C77.528 85.9686 78.9302 86.3351 79.865 87.0522C80.7796 87.7543 81.246 88.8155 81.246 91.0463V91.7548C79.8119 91.5466 78.4841 91.4266 78.4841 91.4266L78.4681 91.3873ZM213.377 82.751C213.401 82.695 213.413 82.6347 213.414 82.5737C213.414 82.5127 213.402 82.4522 213.379 82.3959C213.355 82.3396 213.321 82.2886 213.277 82.246C213.233 82.2033 213.182 82.1699 213.125 82.1477C212.839 82.0393 211.415 81.7387 210.32 81.6707C208.217 81.539 207.049 81.8938 205.997 82.3654C204.958 82.8339 203.809 83.587 203.171 84.4581L203.169 82.4185C203.169 82.1381 202.971 81.9118 202.688 81.9118H198.396C198.118 81.9118 197.916 82.1381 197.916 82.4185V107.382C197.917 107.517 197.97 107.646 198.066 107.741C198.161 107.837 198.29 107.89 198.425 107.891H202.823C202.958 107.89 203.087 107.837 203.182 107.741C203.277 107.646 203.331 107.517 203.331 107.382V94.8471C203.331 93.1687 203.516 91.501 203.884 90.4493C204.247 89.4093 204.741 88.5797 205.35 87.9848C205.931 87.4103 206.641 86.984 207.421 86.742C208.154 86.5318 208.912 86.4253 209.674 86.4254C210.55 86.4254 211.511 86.6506 211.511 86.6506C211.834 86.6867 212.014 86.4892 212.123 86.1981C212.411 85.4322 213.228 83.1388 213.387 82.682" fill="black"/>
<path fill-rule="evenodd" clip-rule="evenodd" d="M172.302 71.2296C171.758 71.0653 171.205 70.934 170.645 70.8365C169.893 70.7109 169.131 70.6519 168.368 70.6602C165.337 70.6602 162.948 71.5164 161.271 73.2075C159.605 74.8859 158.472 77.4428 157.903 80.807L157.698 81.9426H153.894C153.894 81.9426 153.43 81.9234 153.333 82.4302L152.708 85.9144C152.664 86.248 152.808 86.4562 153.254 86.454H156.957L153.2 107.426C152.905 109.115 152.569 110.505 152.196 111.558C151.828 112.597 151.469 113.375 151.027 113.94C150.599 114.487 150.194 114.89 149.493 115.125C148.916 115.319 148.251 115.408 147.522 115.408C147.116 115.408 146.576 115.34 146.178 115.261C145.78 115.182 145.573 115.093 145.274 114.968C145.274 114.968 144.84 114.802 144.669 115.237C144.529 115.593 143.543 118.307 143.426 118.643C143.307 118.974 143.474 119.236 143.684 119.311C144.177 119.487 144.543 119.6 145.215 119.758C146.147 119.978 146.933 119.992 147.67 119.992C149.212 119.992 150.617 119.775 151.783 119.355C152.955 118.931 153.976 118.193 154.879 117.193C155.855 116.115 156.469 114.986 157.057 113.445C157.638 111.919 158.133 110.024 158.529 107.815L162.304 86.454H167.824C167.824 86.454 168.289 86.471 168.386 85.9664L169.011 82.4822C169.054 82.1486 168.912 81.9404 168.464 81.9426H163.106C163.133 81.8215 163.376 79.937 163.991 78.163C164.254 77.4056 164.748 76.7948 165.166 76.3752C165.557 75.9756 166.038 75.6761 166.569 75.502C167.152 75.322 167.759 75.2346 168.368 75.2428C168.872 75.2428 169.368 75.3034 169.745 75.382C170.264 75.4925 170.466 75.5509 170.602 75.5912C171.148 75.758 171.221 75.5966 171.328 75.3321L172.61 71.8138C172.741 71.4356 172.42 71.2763 172.302 71.2296ZM97.439 107.471C97.439 107.752 97.2393 107.98 96.9589 107.98H92.5154C92.2339 107.98 92.0342 107.752 92.0342 107.471V71.7065C92.0342 71.4271 92.2339 71.2009 92.5154 71.2009H96.9589C97.2393 71.2009 97.439 71.4271 97.439 71.7065V107.471Z" fill="black"/>
</g>
</svg>
