<svg width="390" height="261" viewBox="0 0 390 261" fill="none" xmlns="http://www.w3.org/2000/svg">
<path d="M109.499 103.96C109.45 103.519 109.058 103.323 108.764 103.323C108.47 103.323 102.049 102.833 102.049 102.833C102.049 102.833 97.5894 98.3728 97.0503 97.9317C96.5602 97.4415 95.629 97.5886 95.2369 97.6866C95.1879 97.6866 94.2566 97.9807 92.7373 98.4708C91.2179 94.1088 88.6203 90.1388 83.9642 90.1388H83.5231C82.2488 88.4724 80.5824 87.6882 79.2101 87.6882C68.4275 87.6882 63.2323 101.166 61.6149 108.028C57.3999 109.351 54.4102 110.234 54.0671 110.381C51.7146 111.116 51.6656 111.165 51.3715 113.37C51.1264 115.037 45 162.431 45 162.431L92.6883 171.351L118.566 165.764C118.615 165.666 109.548 104.401 109.499 103.96ZM90.0907 99.1569C88.9144 99.5 87.493 99.9411 86.0717 100.431V99.549C86.0717 96.9024 85.7286 94.7459 85.0915 93.0305C87.5421 93.3246 89.0614 96.0202 90.0907 99.1569ZM82.1018 93.5696C82.7389 95.236 83.18 97.5886 83.18 100.823V101.313C80.5334 102.147 77.7397 102.98 74.8481 103.911C76.4654 97.7356 79.5532 94.6969 82.1018 93.5696ZM78.965 90.5309C79.4551 90.5309 79.9453 90.727 80.3373 91.021C76.8575 92.6384 73.1817 96.7064 71.6623 104.94C69.3588 105.675 67.1532 106.313 65.0457 106.999C66.8102 100.725 71.2212 90.5309 78.965 90.5309Z" fill="black"/>
<path d="M108.764 103.225C108.47 103.225 102.05 102.735 102.05 102.735C102.05 102.735 97.5896 98.2747 97.0505 97.8336C96.8544 97.6376 96.6094 97.5396 96.4133 97.5396L92.8354 171.351L118.714 165.764C118.714 165.764 109.646 104.401 109.597 103.96C109.401 103.519 109.058 103.323 108.764 103.225Z" fill="#8E8E8E"/>
<path d="M83.9642 117.536L80.8274 126.996C80.8274 126.996 77.9847 125.476 74.6029 125.476C69.5547 125.476 69.3097 128.662 69.3097 129.446C69.3097 133.759 80.5824 135.426 80.5824 145.571C80.5824 153.56 75.5342 158.706 68.7215 158.706C60.4876 158.706 56.3706 153.609 56.3706 153.609L58.5761 146.355C58.5761 146.355 62.8892 150.08 66.516 150.08C68.9176 150.08 69.8978 148.218 69.8978 146.845C69.8978 141.209 60.6836 140.964 60.6836 131.652C60.6836 123.859 66.271 116.311 77.5926 116.311C81.8076 116.262 83.9642 117.536 83.9642 117.536Z" fill="white"/>
<path d="M148.758 135.328C146.16 133.955 144.837 132.73 144.837 131.113C144.837 129.054 146.699 127.731 149.591 127.731C152.973 127.731 155.962 129.103 155.962 129.103L158.315 121.898C158.315 121.898 156.159 120.232 149.787 120.232C140.916 120.232 134.74 125.329 134.74 132.485C134.74 136.553 137.632 139.641 141.455 141.846C144.592 143.561 145.67 144.836 145.67 146.698C145.67 148.61 144.102 150.178 141.21 150.178C136.946 150.178 132.878 147.973 132.878 147.973L130.378 155.177C130.378 155.177 134.103 157.677 140.377 157.677C149.493 157.677 156.11 153.168 156.11 145.081C156.011 140.67 152.728 137.631 148.758 135.328ZM185.124 120.134C180.615 120.134 177.086 122.29 174.391 125.525L174.293 125.476L178.214 105.087H168.068L158.168 157.04H168.313L171.695 139.297C173.019 132.583 176.498 128.417 179.733 128.417C182.037 128.417 182.919 129.985 182.919 132.191C182.919 133.563 182.821 135.328 182.478 136.7L178.655 157.04H188.8L192.77 136.063C193.211 133.857 193.505 131.211 193.505 129.397C193.456 123.565 190.467 120.134 185.124 120.134ZM216.443 120.134C204.19 120.134 196.103 131.162 196.103 143.463C196.103 151.305 200.955 157.677 210.071 157.677C222.079 157.677 230.166 146.943 230.166 134.347C230.215 127.045 226 120.134 216.443 120.134ZM211.444 149.933C207.964 149.933 206.542 146.992 206.542 143.267C206.542 137.435 209.532 127.976 215.07 127.976C218.648 127.976 219.874 131.113 219.874 134.102C219.874 140.327 216.786 149.933 211.444 149.933ZM256.191 120.134C249.33 120.134 245.458 126.211 245.458 126.211H245.36L245.948 120.771H236.93C236.489 124.447 235.655 130.083 234.871 134.249L227.863 171.449H238.008L240.851 156.403H241.096C241.096 156.403 243.203 157.726 247.026 157.726C258.985 157.726 266.778 145.473 266.778 133.122C266.729 126.26 263.641 120.134 256.191 120.134ZM246.487 150.031C243.84 150.031 242.272 148.512 242.272 148.512L243.938 139.052C245.115 132.681 248.447 128.515 251.976 128.515C255.113 128.515 256.044 131.407 256.044 134.102C256.093 140.67 252.172 150.031 246.487 150.031ZM281.236 105.577C278.001 105.577 275.404 108.175 275.404 111.459C275.404 114.449 277.315 116.556 280.207 116.556H280.305C283.491 116.556 286.186 114.4 286.235 110.675C286.284 107.685 284.275 105.577 281.236 105.577ZM267.023 156.991H277.168L284.03 120.918H273.835L267.023 156.991ZM309.908 120.869H302.85L303.193 119.203C303.781 115.723 305.84 112.684 309.271 112.684C311.084 112.684 312.506 113.223 312.506 113.223L314.466 105.234C314.466 105.234 312.751 104.352 308.928 104.352C305.35 104.352 301.723 105.381 298.978 107.734C295.499 110.675 293.881 114.939 293.097 119.252L292.803 120.918H288.049L286.529 128.613H291.284L285.892 157.04H296.038L301.429 128.613H308.438L309.908 120.869ZM334.365 120.918C334.365 120.918 327.993 136.945 325.2 145.718H325.102C324.906 142.875 322.602 120.918 322.602 120.918H311.917L318.044 153.952C318.142 154.687 318.093 155.128 317.799 155.618C316.623 157.922 314.613 160.127 312.26 161.745C310.349 163.117 308.193 164.048 306.477 164.636L309.32 173.263C311.378 172.821 315.691 171.106 319.269 167.724C323.876 163.411 328.189 156.697 332.6 147.58L345 120.869H334.365V120.918Z" fill="black"/>
</svg>
