<svg width="334" height="122" viewBox="0 0 334 122" fill="none" xmlns="http://www.w3.org/2000/svg">
<path d="M136.637 87.4672V80.0282C137.548 80.7873 138.459 81.3945 139.673 82.0018C140.888 82.6091 142.102 83.0645 143.469 83.52C144.835 83.9754 146.049 84.2791 147.416 84.4309C148.782 84.5827 149.997 84.7345 151.059 84.7345C154.855 84.7345 157.739 83.9754 159.713 82.6091C161.687 81.2427 162.598 79.1172 162.598 76.3845C162.598 74.8663 162.294 73.6518 161.687 72.5891C161.079 71.5263 160.169 70.4636 159.106 69.7045C158.043 68.7936 156.677 68.0345 155.159 67.1236C153.64 66.3645 151.97 65.4536 150.3 64.5427C148.479 63.6318 146.657 62.5691 145.139 61.6582C143.469 60.7472 142.102 59.6845 140.888 58.47C139.673 57.2554 138.762 56.0409 138.003 54.5227C137.244 53.0045 136.94 51.3345 136.94 49.3609C136.94 46.9318 137.548 44.8063 138.61 42.9845C139.673 41.1627 141.039 39.6445 142.861 38.5818C144.531 37.3672 146.505 36.6081 148.782 36.0009C151.059 35.3936 153.337 35.09 155.614 35.09C160.928 35.09 164.723 35.6972 167.152 37.0636V44.1991C163.964 42.0736 160.017 40.8591 155.007 40.8591C153.64 40.8591 152.274 41.0109 150.908 41.3145C149.541 41.6181 148.327 42.0736 147.264 42.6809C146.201 43.2881 145.29 44.1991 144.683 45.2618C144.076 46.3245 143.62 47.5391 143.62 49.0572C143.62 50.4236 143.924 51.6381 144.379 52.5491C144.835 53.6118 145.594 54.5227 146.657 55.2818C147.719 56.0409 148.934 56.9518 150.3 57.7109C151.667 58.47 153.337 59.3809 155.159 60.2918C157.132 61.2027 158.954 62.2654 160.624 63.3282C162.294 64.3909 163.812 65.6054 165.179 66.82C166.545 68.0345 167.456 69.5527 168.215 71.0709C168.974 72.5891 169.278 74.4109 169.278 76.3845C169.278 78.9654 168.822 81.2427 167.759 83.0645C166.697 84.8863 165.33 86.4045 163.66 87.4672C161.839 88.6818 159.865 89.4409 157.588 89.8963C155.31 90.3518 152.881 90.6554 150.3 90.6554C149.389 90.6554 148.479 90.6554 147.112 90.5036C145.898 90.3518 144.531 90.2 143.317 89.8963C142.102 89.5927 140.736 89.2891 139.673 88.9854C138.155 88.3782 137.244 87.9227 136.637 87.4672Z" fill="white"/>
<path d="M206.017 89.5926H197.364L180.663 71.2226H180.512V89.5926H174.287V32.8126H180.512V68.7935H180.663L196.604 51.1826H204.651L186.888 69.7044L206.017 89.5926Z" fill="white"/>
<path d="M241.998 51.1827L224.539 95.6654C221.351 103.56 216.948 107.507 211.331 107.507C209.813 107.507 208.446 107.355 207.383 107.052V101.586C208.75 102.042 209.964 102.194 211.027 102.194C214.063 102.194 216.341 100.372 218.011 96.7282L221.047 89.4409L206.169 51.1827H213.001L223.324 80.6354C223.476 80.9391 223.78 82.0018 224.083 83.52H224.235C224.387 82.9127 224.539 82.0018 224.994 80.6354L235.773 51.0309H241.998V51.1827Z" fill="white"/>
<path d="M251.563 68.6417V73.9554C251.563 77.1436 252.626 79.8763 254.599 82.0017C256.725 84.279 259.306 85.3417 262.342 85.3417C265.986 85.3417 268.87 83.9754 270.996 81.0908C273.121 78.2063 274.184 74.259 274.184 69.249C274.184 64.9981 273.273 61.6581 271.299 59.229C269.326 56.7999 266.745 55.5854 263.405 55.5854C259.913 55.5854 257.028 56.7999 254.903 59.3808C252.626 61.6581 251.563 64.8463 251.563 68.6417ZM251.715 83.9754L251.563 107.204H245.49V51.1826H251.563V57.8626H251.715C254.751 52.7008 259.154 50.2717 264.923 50.2717C269.781 50.2717 273.728 51.9417 276.461 55.4335C279.194 58.9254 280.56 63.4799 280.56 69.249C280.56 75.6254 279.042 80.7872 275.854 84.5826C272.818 88.3781 268.567 90.3517 263.101 90.3517C258.243 90.5036 254.296 88.3781 251.715 83.9754Z" fill="white"/>
<path d="M311.228 66.82C311.228 63.3281 310.317 60.4436 308.647 58.4699C306.977 56.4963 304.7 55.5854 301.663 55.5854C298.779 55.5854 296.35 56.6481 294.376 58.6218C292.402 60.7472 291.188 63.3281 290.58 66.82H311.228ZM317.452 71.9818H290.58C290.732 76.2327 291.795 79.5727 294.072 81.85C296.198 84.1272 299.234 85.3418 303.03 85.3418C307.28 85.3418 311.228 83.9754 314.871 81.0909V86.86C311.531 89.2891 307.129 90.5036 301.511 90.5036C296.198 90.5036 291.947 88.8336 288.759 85.3418C285.722 81.85 284.204 76.9918 284.204 70.6154C284.204 64.6945 285.874 59.8363 289.214 56.0409C292.554 52.2454 296.805 50.4236 301.815 50.4236C306.825 50.4236 310.62 52.0936 313.353 55.2818C316.086 58.4699 317.452 63.0245 317.452 68.7936V71.9818Z" fill="white"/>
<path d="M62.8525 90.3517C47.5188 90.3517 40.5352 82.609 40.5352 76.8399C40.5352 73.9553 42.8125 71.8299 45.8488 71.8299C52.377 71.8299 50.707 81.698 63.0043 81.698C69.2288 81.698 72.8725 77.9026 72.8725 74.4108C72.8725 72.2853 71.6579 69.8562 67.5588 68.9453L53.8952 65.4535C42.9643 62.7208 40.9907 56.4962 40.9907 50.879C40.9907 39.189 51.7697 34.938 61.9416 34.938C71.3543 34.938 82.5888 40.0999 82.5888 47.2353C82.5888 50.2717 80.0079 51.9417 77.1234 51.9417C71.5061 51.9417 72.417 44.0471 61.1825 44.0471C55.5652 44.0471 52.6807 46.628 52.6807 50.2717C52.6807 53.9153 57.0834 55.1299 60.8788 56.0408L70.8988 58.318C81.9816 60.7471 84.8661 67.2753 84.8661 73.4999C84.8661 82.9126 77.427 90.3517 62.8525 90.3517ZM105.21 70.008C105.665 67.579 105.817 64.998 105.817 62.4171C105.817 38.4299 86.5361 18.9971 62.7006 18.9971C60.1197 18.9971 57.6907 19.149 55.2616 19.6044C51.4661 17.479 47.2152 16.2644 42.5088 16.2644C28.3897 16.2644 16.8516 27.8026 16.8516 42.0735C16.8516 46.7799 18.0661 51.0308 20.1916 54.8262C19.7361 57.2553 19.5843 59.8362 19.5843 62.4171C19.5843 86.4044 38.8652 105.837 62.7006 105.837C65.2816 105.837 67.7107 105.685 70.1397 105.23C73.9352 107.355 78.1861 108.57 82.8925 108.57C97.0116 108.57 108.55 97.0317 108.55 82.7608C108.55 78.2062 107.335 73.8035 105.21 70.008Z" fill="white"/>
</svg>
