<svg width="300" height="172" viewBox="0 0 300 172" fill="none" xmlns="http://www.w3.org/2000/svg">
<g clip-path="url(#clip0_14713_160)">
<path d="M3.40996 78.3911C2.78403 78.3911 2.28724 78.8751 2.2063 79.5653L0.0126953 96.2279L2.2063 112.603C2.28724 113.294 2.78373 113.774 3.40996 113.774C4.01618 113.774 4.50994 113.297 4.60664 112.609L7.20672 96.2276L4.60664 79.562C4.51297 78.8748 4.01315 78.3911 3.40996 78.3911ZM15.7462 69.2871C15.6429 68.5712 15.13 68.0774 14.4977 68.0774C13.8621 68.0774 13.3362 68.5873 13.2492 69.2871C13.2492 69.2935 10.3006 96.2279 10.3006 96.2279L13.2492 122.572C13.3332 123.278 13.8591 123.788 14.4977 123.788C15.1267 123.788 15.6399 123.291 15.7429 122.578L19.0977 96.2279L15.7462 69.2871ZM62.2143 44.437C61.0046 44.437 60.0043 45.4272 59.9464 46.6854L57.5979 96.2503L59.9464 128.282C60.0076 129.533 61.0046 130.521 62.2143 130.521C63.4176 130.521 64.4146 129.53 64.4855 128.275V128.285L67.1404 96.2503L64.4855 46.6854C64.4143 45.4272 63.4173 44.437 62.2143 44.437ZM38.164 61.6639C37.235 61.6639 36.4769 62.4059 36.4023 63.3962L33.7571 96.2373L36.4023 128.011C36.4732 128.994 37.2346 129.736 38.164 129.736C39.0833 129.736 39.8414 128.994 39.9223 128.011L42.9289 96.2373L39.9223 63.3895C39.8414 62.4059 39.0833 61.6639 38.164 61.6639ZM86.655 130.518C88.1551 130.518 89.3745 129.308 89.4357 127.759L91.7393 96.2664L89.439 30.2775C89.3778 28.7289 88.1581 27.5191 86.6583 27.5191C85.1452 27.5191 83.9227 28.7322 83.8739 30.2808L81.8319 96.2631L83.8739 127.769C83.9224 129.305 85.1449 130.518 86.655 130.518ZM136.691 130.666C138.756 130.666 140.459 128.966 140.498 126.875L142.104 96.2858L140.497 20.0735C140.462 17.9863 138.755 16.2832 136.691 16.2832C134.623 16.2832 132.916 17.9833 132.884 20.0769L131.448 96.26C131.448 96.3085 132.884 126.894 132.884 126.894C132.917 128.966 134.626 130.666 136.691 130.666ZM111.482 130.547C113.28 130.547 114.728 129.104 114.776 127.266V127.288L116.731 96.2731L114.773 29.8067C114.725 27.9678 113.276 26.5292 111.479 26.5292C109.669 26.5292 108.221 27.9681 108.182 29.8067L106.444 96.2764L108.186 127.285C108.224 129.104 109.673 130.547 111.482 130.547ZM50.1423 130.256C51.2102 130.256 52.0749 129.401 52.1556 128.275L54.9881 96.2376L52.1556 65.7611C52.0783 64.6353 51.2138 63.7866 50.1423 63.7866C49.0587 63.7866 48.1939 64.6414 48.1263 65.7741L45.6323 96.2376L48.1263 128.272C48.1972 129.401 49.0584 130.256 50.1423 130.256ZM26.2827 128.501C27.0632 128.501 27.6955 127.885 27.7858 127.033L30.9666 96.2309L27.7888 64.2673C27.6952 63.4126 27.0629 62.796 26.2824 62.796C25.4918 62.796 24.8596 63.4156 24.7789 64.2673L21.9788 96.2309L24.7789 127.027C24.8565 127.882 25.4888 128.501 26.2827 128.501ZM124.038 28.7001C122.087 28.7001 120.522 30.252 120.483 32.2392L118.896 96.2794L120.483 127.095C120.522 129.056 122.083 130.608 124.038 130.608C125.987 130.608 127.542 129.059 127.587 127.072V127.098L129.368 96.2828L127.587 32.2325C127.542 30.252 125.987 28.7001 124.038 28.7001ZM74.3893 130.582C75.7378 130.582 76.8509 129.482 76.9154 128.078L79.3931 96.2597L76.9154 35.3585C76.8475 33.9518 75.7378 32.8551 74.3893 32.8551C73.028 32.8551 71.9184 33.9551 71.8602 35.3585L69.6665 96.2597L71.8635 128.091C71.9181 129.482 73.0277 130.582 74.3893 130.582ZM102.056 127.579V127.562L104.185 96.2697L102.056 28.0581C102.004 26.3646 100.669 25.0355 99.0201 25.0355C97.3617 25.0355 96.0262 26.3613 95.9814 28.0581L94.0909 96.2664L95.9844 127.575C96.0296 129.253 97.3654 130.578 99.0204 130.578C100.672 130.578 102.001 129.253 102.056 127.566L102.056 127.579ZM263.094 56.9506C258.038 56.9506 253.216 57.9733 248.822 59.8153C245.886 26.5613 218 0.475342 183.985 0.475342C175.662 0.475342 167.548 2.11426 160.383 4.88529C157.599 5.96285 156.857 7.07254 156.831 9.22432V126.33C156.86 128.588 158.612 130.469 160.815 130.692C160.909 130.701 262.433 130.753 263.091 130.753C283.467 130.753 299.987 114.232 299.987 93.8533C299.987 73.4743 283.47 56.9506 263.094 56.9506ZM149.288 9.12126C147.072 9.12126 145.253 10.9408 145.22 13.1763L143.556 96.2955L145.224 126.462C145.253 128.666 147.072 130.482 149.288 130.482C151.498 130.482 153.318 128.666 153.35 126.43V126.466L155.16 96.2955L153.35 13.1699C153.318 10.9408 151.498 9.12126 149.288 9.12126ZM29.8087 154.21C25.444 153.184 24.263 152.635 24.263 150.906C24.263 149.687 25.2469 148.425 28.1956 148.425C30.715 148.425 32.6831 149.448 34.4512 151.258L38.4225 147.406C35.8258 144.693 32.6801 143.08 28.3959 143.08C22.9633 143.08 18.5597 146.148 18.5597 151.145C18.5597 156.571 22.1022 158.184 27.1735 159.362C32.364 160.539 33.3094 161.329 33.3094 163.1C33.3094 165.185 31.7705 166.091 28.512 166.091C25.8765 166.091 23.3989 165.188 21.4699 162.939L17.4979 166.482C19.5818 169.55 23.5983 171.476 28.1953 171.476C35.7121 171.476 39.0154 167.937 39.0154 162.707C39.0157 156.726 34.1766 155.232 29.8087 154.21ZM55.1457 143.08C47.6356 143.08 43.1932 148.9 43.1932 157.278C43.1932 165.656 47.6353 171.472 55.1457 171.472C62.6562 171.472 67.1047 165.656 67.1047 157.278C67.1047 148.9 62.6562 143.08 55.1457 143.08ZM55.1457 166.011C50.7037 166.011 48.8517 162.194 48.8517 157.281C48.8517 152.364 50.7034 148.548 55.1457 148.548C59.5945 148.548 61.4398 152.364 61.4398 157.281C61.4398 162.194 59.5945 166.011 55.1457 166.011ZM89.3293 158.971C89.3293 163.375 87.1615 166.091 83.6645 166.091C80.1642 166.091 78.0412 163.297 78.0412 158.894V143.509H72.5312V158.971C72.5312 166.991 77.0188 171.476 83.6642 171.476C90.6648 171.476 94.8359 166.872 94.8359 158.894V143.509H89.3293V158.971ZM118.589 155.155C118.589 156.691 118.667 160.149 118.667 161.172C118.312 160.462 117.409 159.088 116.741 158.062L106.982 143.506H101.714V171.044H107.143V158.926C107.143 157.391 107.066 153.932 107.066 152.91C107.417 153.616 108.327 154.994 108.992 156.02L119.102 171.043H124.018V143.506H118.589L118.589 155.155ZM139.71 143.509H131.097V171.046H139.313C146.395 171.046 153.399 166.953 153.399 157.278C153.399 147.206 147.576 143.509 139.71 143.509ZM139.313 165.697H136.604V148.861H139.514C145.337 148.861 147.737 151.651 147.737 157.278C147.737 162.314 145.098 165.697 139.313 165.697ZM170.429 148.545C172.907 148.545 174.481 149.648 175.464 151.535L180.578 149.177C178.845 145.599 175.697 143.08 170.506 143.08C163.315 143.08 158.276 148.9 158.276 157.278C158.276 165.969 163.112 171.472 170.309 171.472C175.306 171.472 178.61 169.153 180.497 165.259L175.858 162.504C174.402 164.946 172.944 166.008 170.467 166.008C166.338 166.008 163.938 162.23 163.938 157.278C163.935 152.168 166.303 148.545 170.429 148.545ZM190.853 143.509H185.346V171.046H201.896V165.614H190.853V143.509ZM216.403 143.08C208.887 143.08 204.444 148.9 204.444 157.278C204.444 165.656 208.887 171.472 216.403 171.472C223.913 171.472 228.359 165.656 228.359 157.278C228.359 148.9 223.913 143.08 216.403 143.08ZM216.403 166.011C211.954 166.011 210.109 162.194 210.109 157.281C210.109 152.364 211.954 148.548 216.403 148.548C220.843 148.548 222.691 152.364 222.691 157.281C222.691 162.194 220.843 166.011 216.403 166.011ZM250.58 158.971C250.58 163.375 248.422 166.091 244.922 166.091C241.415 166.091 239.295 163.297 239.295 158.894V143.509H233.789V158.971C233.789 166.991 238.273 171.476 244.922 171.476C251.922 171.476 256.09 166.872 256.09 158.894V143.509H250.58V158.971ZM271.585 143.509H262.975V171.046H271.191C278.276 171.046 285.273 166.953 285.273 157.278C285.273 147.206 279.453 143.509 271.585 143.509ZM271.191 165.697H268.478V148.861H271.391C277.208 148.861 279.608 151.651 279.608 157.278C279.608 162.314 276.972 165.697 271.191 165.697Z" fill="white"/>
</g>
<defs>
<clipPath id="clip0_14713_160">
<rect width="300" height="171" fill="white" transform="translate(0 0.475342)"/>
</clipPath>
</defs>
</svg>
