<svg width="380" height="191" viewBox="0 0 380 191" fill="none" xmlns="http://www.w3.org/2000/svg">
<path d="M151.366 44.8722C149.479 44.8722 147.598 44.8658 145.711 44.8658C141.239 44.8563 137.113 48.2763 133.962 50.987C130.941 53.7262 128.193 56.744 125.745 60.0057C124.827 57.5515 123.718 55.1702 122.429 52.8807C121.615 51.2004 120.453 49.7121 119.02 48.5139C117.588 47.3158 115.918 46.435 114.12 45.9298C112.259 45.6771 110.377 45.6124 108.502 45.7367C106.925 45.7303 102.445 45.7367 102.445 45.7367C102.445 45.7367 97.9575 45.7303 96.3836 45.7367C94.5093 45.6124 92.6273 45.6771 90.766 45.9298C88.9682 46.435 87.298 47.3158 85.8657 48.5139C84.4334 49.7121 83.2714 51.2004 82.4566 52.8807C81.1766 55.1655 80.0765 57.5467 79.1665 60.0025C76.7186 56.7408 73.9668 53.723 70.949 50.9838C67.7918 48.2732 63.672 44.8532 59.1943 44.8627L53.5386 44.869C50.8449 44.8732 48.1532 44.8774 45.4636 44.8817C43.5003 44.8912 39.162 44.375 40.188 47.567C40.4413 48.3397 41.3153 49.0332 41.8125 49.676L43.437 51.9465L45.717 55.7718L50.7203 65.3035C54.4705 72.2692 58.8099 78.9011 63.691 85.1268C67.3738 89.6742 71.8198 94.2658 77.3235 96.5205C73.1688 104.241 69.0247 111.968 64.8911 119.701L53.3961 140.569C52.7568 141.574 52.347 142.709 52.196 143.891C52.1991 146.025 55.369 146.088 56.8826 146.098L61.791 146.047C64.6346 146.016 67.4783 145.984 70.322 145.952L75.3886 145.838C77.4967 145.653 79.5407 145.019 81.3831 143.978C83.2255 142.936 84.8236 141.513 86.0698 139.803C86.8868 138.663 94.5311 126.123 97.6281 121.056L102.464 113.405L107.296 121.056L118.854 139.803C120.101 141.513 121.699 142.936 123.541 143.978C125.383 145.019 127.427 145.653 129.535 145.838C131.214 145.997 132.924 145.933 134.602 145.952C137.444 145.98 140.287 146.011 143.133 146.047L148.041 146.098C149.555 146.088 152.728 146.025 152.728 143.891C152.579 142.706 152.168 141.573 151.525 140.566L150.986 139.609L140.039 119.701C135.893 111.974 131.745 104.247 127.594 96.5205C133.104 94.2627 137.547 89.6742 141.23 85.1268C146.113 78.9012 150.454 72.2702 154.204 65.3035L159.213 55.7718L161.493 51.9465C162 51.1643 162.538 50.4043 163.115 49.676C163.764 49.0617 164.312 48.346 164.742 47.567C165.768 44.375 161.43 44.8912 159.47 44.8817C156.772 44.8774 154.077 44.8732 151.385 44.869L151.366 44.8722Z" fill="white"/>
<path d="M111.783 62.6466L112.645 62.5009C113.042 62.4172 113.433 62.3039 113.813 62.1621C114.591 61.8911 115.313 61.4812 115.944 60.9524C116.228 60.7501 116.468 60.4927 116.65 60.1956C114.155 60.2431 112.296 60.2272 111.068 60.1322C110.732 60.0816 110.488 60.9461 110.33 62.6656C110.314 62.7986 111.121 62.7131 111.786 62.6212L111.783 62.6466ZM99.2116 74.2524C99.1799 74.2841 99.1641 74.3347 99.1641 74.3791C99.1641 74.4234 99.1957 74.4867 99.2337 74.5216C99.3509 74.6324 99.4807 74.7306 99.6137 74.8192C100.405 75.3449 101.333 75.6172 102.28 75.6046C103.23 75.6217 104.163 75.3477 104.953 74.8192C105.093 74.73 105.226 74.6305 105.352 74.5216C105.447 74.4424 105.491 74.3189 105.421 74.2049C105.333 74.1162 105.193 74.1162 105.105 74.1986L104.747 74.4677H104.744C104.01 74.9371 103.157 75.1865 102.286 75.1865C101.415 75.1865 100.563 74.9371 99.8291 74.4677H99.8227C99.706 74.3843 99.5939 74.2944 99.4871 74.1986C99.4491 74.1669 99.3984 74.1479 99.3446 74.1511C99.2907 74.1542 99.2432 74.1827 99.2116 74.2144V74.2524ZM110.149 72.6184C110.139 72.5979 110.131 72.5767 110.124 72.5551C110.13 72.5772 110.14 72.5994 110.156 72.6184H110.149ZM116.03 65.6391C115.812 65.1555 115.486 64.7285 115.077 64.3914C113.937 63.5364 112.353 63.5997 111.286 64.5497C110.836 65.0075 110.474 65.5442 110.219 66.1331C109.579 67.5047 109.264 69.0057 109.301 70.5189C109.33 71.2102 109.598 71.87 110.057 72.3872C110.662 72.9391 111.423 73.2899 112.236 73.3911C113.037 73.6317 113.895 73.5969 114.668 73.2866C115.439 72.7228 115.954 71.8768 116.103 70.9337C116.46 69.8284 116.617 68.668 116.565 67.5074C116.5 66.8471 116.318 66.2036 116.027 65.6074L116.03 65.6391Z" fill="black"/>
<path d="M113.262 68.4256C113.656 68.276 114.063 68.1615 114.478 68.0836C113.591 68.1469 113.129 67.7891 113.046 67.0133L112.882 65.4299C112.913 66.1329 112.777 66.8328 112.489 67.4724C112.386 67.6499 112.239 67.7973 112.061 67.8999L111.533 68.0678C111.338 68.138 111.134 68.1827 110.928 68.2008C111.897 68.1153 112.416 68.3591 112.502 68.8974L112.818 70.4333C112.834 69.2299 112.999 68.5808 113.293 68.4573L113.262 68.4256ZM114.474 70.8259L114.379 69.8284C114.395 70.2623 114.316 70.6929 114.148 71.0951C114.075 71.2059 113.98 71.2978 113.832 71.3643L113.521 71.4593C113.395 71.5004 113.268 71.5289 113.141 71.5416C113.73 71.4909 114.091 71.6366 114.091 71.9691L114.259 72.9064C114.259 72.1654 114.354 71.7759 114.554 71.7031C114.792 71.6046 115.04 71.5324 115.295 71.4878C114.75 71.5194 114.459 71.2914 114.408 70.8544" fill="black"/>
<path d="M94.1832 62.6909C94.0122 60.9429 93.7715 60.0784 93.4422 60.1576C92.1755 60.2526 90.3547 60.2684 87.853 60.2209C88.0357 60.5167 88.2745 60.7738 88.556 60.9777C89.1882 61.5054 89.9101 61.9151 90.6872 62.1874C91.0671 62.3278 91.4565 62.441 91.8525 62.5262C91.9349 62.5452 92.2959 62.6117 92.7139 62.6719C93.3472 62.7669 94.1864 62.8524 94.18 62.7162L94.1832 62.6909ZM94.3795 72.6532L94.4049 72.5899C94.3985 72.6121 94.3922 72.6311 94.3827 72.6532H94.3795ZM87.9702 67.5454C87.9156 68.7061 88.0722 69.867 88.4325 70.9717C88.5039 71.439 88.6671 71.8875 88.9128 72.2914C89.1584 72.6952 89.4817 73.0464 89.8639 73.3246C90.6397 73.6349 91.4979 73.6412 92.2959 73.4291C93.1097 73.3277 93.8697 72.9794 94.5125 72.4252C94.9722 71.908 95.2394 71.2482 95.2694 70.5569C95.3074 69.0432 94.9907 67.5422 94.3194 66.1711C94.0736 65.5676 93.7109 65.0188 93.2522 64.5561C92.1882 63.6061 90.6049 63.5427 89.4649 64.3977C89.0532 64.7334 88.7302 65.1577 88.5149 65.6454C88.2207 66.2407 88.0372 66.8845 87.9734 67.5454H87.9702Z" fill="black"/>
<path d="M91.2692 68.4257C90.8748 68.276 90.4679 68.1615 90.0532 68.0837C90.9399 68.1471 91.4022 67.7892 91.4846 67.0134L91.6492 65.4301C91.617 66.133 91.7539 66.8334 92.0482 67.4726C92.1496 67.6499 92.2952 67.7956 92.4694 67.9001L92.9982 68.0679C93.1946 68.1376 93.3972 68.1819 93.6062 68.2009C92.6372 68.1154 92.1116 68.3592 92.0324 68.8976L91.7157 70.4334C91.6999 69.2301 91.5352 68.5809 91.2407 68.4574L91.2692 68.4257ZM90.0532 70.8261L90.1546 69.8286C90.1407 70.2614 90.2196 70.6922 90.3857 71.0921C90.4554 71.1997 90.5504 71.2916 90.6644 71.3612L90.9811 71.4562C91.1077 71.4974 91.2344 71.5259 91.3611 71.5386C90.7689 71.4879 90.4111 71.6336 90.4111 71.9661L90.2464 72.9034C90.2464 72.1624 90.1451 71.7729 89.9519 71.7001C89.7136 71.6011 89.4651 71.5288 89.2109 71.4847C89.7556 71.5164 90.0501 71.2884 90.0976 70.8514L90.0532 70.8261ZM53.7696 140.759L53.0001 142.333C52.7752 142.82 52.6442 143.345 52.6137 143.881V143.887C52.6042 144.245 52.7499 144.584 53.0096 144.831C53.322 145.095 53.69 145.286 54.0862 145.388C55.0023 145.602 55.9419 145.699 56.8824 145.677L57.3891 145.68L70.3249 145.528L71.2116 145.525L72.2566 145.528L75.3536 145.414C79.4702 145.053 83.2861 142.88 85.7402 139.549C86.322 138.67 86.8879 137.78 87.4376 136.88L90.6486 131.68L97.2796 120.834L102.115 113.177C102.154 113.118 102.207 113.07 102.269 113.036C102.33 113.002 102.399 112.983 102.47 112.981C102.612 112.974 102.742 113.057 102.786 113.177L107.631 120.834L117.47 136.876L119.171 139.546C120.38 141.21 121.933 142.594 123.724 143.607C125.515 144.619 127.502 145.235 129.551 145.414C130.581 145.501 131.614 145.539 132.648 145.528L133.699 145.525L134.586 145.528C137.425 145.559 140.269 145.591 143.117 145.623L147.55 145.677L148.057 145.673C148.754 145.682 149.451 145.636 150.141 145.537C150.793 145.474 151.417 145.23 151.933 144.825C152.063 144.705 152.165 144.559 152.233 144.396C152.302 144.233 152.334 144.058 152.329 143.881V143.868C152.297 143.33 152.171 142.808 151.949 142.285C151.721 141.737 151.426 141.189 151.176 140.724L150.644 139.809L139.688 119.859C135.539 112.132 131.393 104.405 127.249 96.6787C127.195 96.5742 127.186 96.4507 127.227 96.3399C127.268 96.2291 127.353 96.1372 127.461 96.0929C132.854 93.8889 137.265 89.3479 140.929 84.8259C145.799 78.6192 150.125 72.0009 153.865 65.0564L157.655 57.7667C154.749 62.144 151.146 66.0162 146.99 69.2301C140.878 74.1542 130.523 79.0467 115.941 83.7967C101.902 88.3842 91.5743 93.7253 84.9581 99.8201L78.3271 105.72C76.9243 107.185 75.5456 108.674 74.1914 110.185C70.8442 113.997 67.7092 117.99 64.8022 122.148L61.5912 126.708L54.3079 139.809L53.7759 140.746" fill="black"/>
<path d="M164.046 47.3419C163.913 47.6554 163.72 47.9403 163.479 48.1811L162.542 49.2261L162.536 49.2324C161.94 49.9798 161.386 50.7588 160.87 51.5631H160.873L158.581 55.4169L153.568 64.9549C149.837 71.8836 145.524 78.483 140.664 84.6738C137.012 89.1895 132.633 93.6798 127.326 95.8521C127.136 95.9313 126.977 96.0896 126.908 96.2891C126.838 96.4886 126.854 96.7071 126.952 96.9225C131.107 104.643 135.255 112.369 139.397 120.102L150.354 140.021L150.886 140.961L151.646 142.497C151.852 142.945 151.973 143.427 152.003 143.919V143.935C152.016 144.201 151.908 144.46 151.712 144.641C151.237 144.999 150.677 145.217 150.084 145.274C149.41 145.369 148.732 145.41 148.051 145.407H147.497C146.06 145.407 144.609 145.369 143.153 145.357C140.307 145.323 137.463 145.291 134.622 145.262L133.849 145.255L132.646 145.258C131.616 145.258 130.6 145.246 129.615 145.151C127.613 144.975 125.671 144.373 123.921 143.385C122.17 142.397 120.651 141.046 119.466 139.422L118.886 138.536L107.942 120.726L103.097 113.063C102.961 112.851 102.724 112.721 102.47 112.721C102.217 112.721 101.983 112.848 101.843 113.063C101.84 113.069 98.1828 118.795 96.9984 120.726L90.3769 131.512L87.1691 136.705L86.0608 138.472L85.4813 139.359C83.0841 142.646 79.3823 144.733 75.3321 145.091C74.3504 145.186 73.3371 145.198 72.3016 145.198C71.9026 145.198 71.5004 145.195 71.0983 145.195L70.3256 145.201C67.4819 145.227 64.6383 145.258 61.7946 145.296L57.4499 145.347H56.8958C55.9838 145.369 55.0749 145.274 54.1883 145.068C53.8399 144.986 53.5138 144.821 53.2383 144.587C53.0419 144.407 52.9343 144.144 52.9533 143.878V143.865C52.9849 143.374 53.1053 142.89 53.3111 142.44C53.5328 141.911 53.8178 141.373 54.0648 140.904L54.5936 139.967L65.5503 120.049C69.6944 112.322 73.8385 104.595 77.9826 96.8686C78.0839 96.685 78.0998 96.4633 78.0301 96.2353C77.9604 96.0073 77.8084 95.8774 77.6121 95.7983C72.3048 93.6291 67.9221 89.1388 64.2741 84.62C59.4196 78.426 55.1034 71.8266 51.3763 64.9011L46.3634 55.3631L44.0708 51.5124C43.5546 50.7081 43.0004 49.9291 42.4051 49.1818C42.1043 48.7954 41.7559 48.4534 41.4646 48.1368C41.2239 47.8976 41.0324 47.6136 40.9009 47.3008C40.8281 47.0918 40.7869 46.8733 40.7806 46.6516C40.7679 46.4743 40.8249 46.3033 40.9389 46.1608C41.2237 45.902 41.5826 45.7391 41.9649 45.6953C42.5587 45.5915 43.161 45.5448 43.7636 45.5559L45.4736 45.5813C48.1674 45.5771 50.859 45.5728 53.5486 45.5686C55.4317 45.5686 57.3159 45.5676 59.2011 45.5654H59.2233C61.3544 45.6604 63.4191 46.3254 65.1988 47.5034C67.0636 48.6886 68.8262 50.0275 70.4681 51.5061C73.4524 54.2131 76.1712 57.1991 78.5874 60.4234C78.7553 60.6356 79.0213 60.7401 79.2841 60.6958C79.5469 60.6514 79.7718 60.4741 79.8636 60.2208C80.7694 57.8015 81.862 55.4564 83.1316 53.2066L83.1443 53.1813C84.6579 50.1824 87.7201 47.2754 90.9438 46.6199C91.829 46.4551 92.7288 46.3809 93.6291 46.3983L96.4158 46.4426H98.6862H108.535L111.321 46.3983C112.221 46.3806 113.119 46.4549 114.003 46.6199C117.227 47.2754 120.292 50.1793 121.806 53.1813L121.819 53.2066C123.087 55.4569 124.18 57.802 125.087 60.2208C125.182 60.4741 125.403 60.6578 125.666 60.6958C125.929 60.7338 126.205 60.6324 126.363 60.4234C128.778 57.1995 131.496 54.2135 134.479 51.5061C136.124 50.0282 137.888 48.6894 139.755 47.5034C141.534 46.3318 143.599 45.6604 145.73 45.5654H145.749C147.632 45.5654 149.518 45.5665 151.405 45.5686C154.094 45.5728 156.788 45.5771 159.486 45.5813H159.543L161.19 45.5559C161.95 45.5243 162.716 45.6129 163.454 45.8219C163.666 45.8856 163.857 46.0023 164.011 46.1608C164.124 46.2986 164.179 46.4742 164.167 46.6516C164.16 46.8728 164.119 47.0917 164.046 47.3008V47.3419ZM165.136 45.2393C164.642 44.7231 163.986 44.3843 163.28 44.2893C162.59 44.1626 161.887 44.1088 161.19 44.1214L159.48 44.1468C156.784 44.1426 154.089 44.1383 151.395 44.1341C149.508 44.1341 147.595 44.1278 145.74 44.1278H145.743H145.721C143.32 44.2203 140.989 44.9647 138.979 46.2811C137.041 47.5098 135.179 48.8968 133.501 50.3978C130.752 52.8678 128.237 55.5869 125.989 58.5203C125.15 56.4556 124.184 54.4448 123.098 52.5036C121.347 48.9126 118.139 46.2463 114.288 45.1886C113.338 44.9986 112.306 44.9163 111.305 44.9353L108.519 44.9796H106.248H102.461H98.6736H96.3936C95.5228 44.9796 94.5791 44.9353 93.6133 44.9353C92.6094 44.9163 91.6088 44.9986 90.6239 45.1886C86.7606 46.2526 83.5528 48.9253 81.8048 52.5289C80.7218 54.4669 79.7623 56.4683 78.9231 58.5234C76.6763 55.5891 74.1617 52.87 71.4118 50.4009C69.7018 48.8683 67.8746 47.4813 65.9398 46.2843C63.9296 44.9679 61.599 44.2235 59.1979 44.1309H59.1568L53.5201 44.1373C50.8263 44.1415 48.1347 44.1457 45.4451 44.1499H45.3913C44.9574 44.1499 44.3684 44.1246 43.7446 44.1246C42.809 44.0889 41.8739 44.2076 40.9769 44.4761C40.5209 44.6249 40.1115 44.8901 39.7894 45.2456C39.4468 45.6525 39.2644 46.1705 39.2764 46.7023C39.2832 47.0772 39.3472 47.4488 39.4664 47.8043C39.6612 48.3154 39.9574 48.7818 40.3373 49.1754L41.2113 50.1413C41.7749 50.8474 42.3038 51.5853 42.7946 52.3484L45.0588 56.1484L50.0621 65.6484C53.8324 72.6509 58.1951 79.3178 63.1024 85.5763C66.6491 89.9526 70.9431 94.405 76.2916 96.837C72.2594 104.331 68.2483 111.83 64.2583 119.333L52.7633 140.233L51.9463 141.895C51.6613 142.522 51.5029 143.194 51.4776 143.884V143.916C51.4748 144.245 51.5397 144.572 51.6682 144.875C51.7968 145.179 51.9863 145.452 52.2249 145.68C52.9121 146.25 53.7513 146.607 54.6379 146.702C55.3853 146.807 56.1421 146.861 56.8989 146.848H57.4626L70.3509 146.699L71.1109 146.696H72.3143L75.4873 146.579C79.9649 146.183 84.0531 143.871 86.6973 140.239L87.3306 139.28L98.2873 121.451L101.137 116.917L102.489 114.795L103.838 116.917L106.688 121.451L113.319 132.3L116.534 137.506L117.642 139.28L118.269 140.239C119.577 142.035 121.254 143.529 123.188 144.623C125.121 145.717 127.266 146.385 129.479 146.582C130.534 146.672 131.593 146.711 132.652 146.699H133.855L134.615 146.702L147.51 146.851H148.074C149.119 146.877 150.164 146.763 151.186 146.516C151.766 146.37 152.304 146.082 152.751 145.683C153.242 145.22 153.511 144.574 153.501 143.9V143.884C153.475 143.196 153.316 142.52 153.033 141.892C152.773 141.268 152.463 140.689 152.209 140.227L151.658 139.251L140.721 119.365C136.699 111.87 132.675 104.372 128.649 96.8686C134.001 94.4366 138.285 89.9843 141.835 85.608C146.744 79.3495 151.109 72.6826 154.882 65.6801L159.885 56.1801L162.149 52.3801C162.638 51.6188 163.165 50.8822 163.726 50.1729V50.1793C163.929 49.9164 164.265 49.5839 164.604 49.2103C164.984 48.8181 165.28 48.3527 165.474 47.8423C165.595 47.4876 165.658 47.1139 165.664 46.7339C165.677 46.2019 165.493 45.6826 165.151 45.2773L165.136 45.2393Z" fill="white"/>
<path d="M270.338 64.6954C267.077 66.4054 265.864 69.2871 265.864 77.2544C267.061 76.1778 268.451 75.3323 269.965 74.7718C271.458 74.2074 272.868 73.4413 274.154 72.4949C276.909 70.4778 277.333 67.8779 277.333 63.5016C277.333 63.5016 272.843 63.3749 270.335 64.6923" fill="white"/>
<path d="M251.006 66.5573C249.306 68.2147 248.114 70.3228 247.57 72.6341L238.767 106.73L231.446 78.8249C230.733 75.8578 229.451 72.1908 227.418 69.7113C224.827 66.5509 219.564 66.3546 219.001 66.3546C218.437 66.3546 213.174 66.5509 210.584 69.7113C208.551 72.1908 207.265 75.8546 206.553 78.8249L199.269 106.73L190.466 72.6341C189.925 70.3214 188.734 68.2117 187.033 66.5541C182.727 62.7541 176.26 63.5679 176.26 63.5679L193.113 127.288C193.113 127.288 198.674 127.687 201.454 126.268C205.109 124.406 206.847 122.968 209.061 114.298L217.056 82.2513C217.31 81.4533 217.633 79.5438 219.036 79.5438C220.47 79.5438 220.765 81.4501 221.015 82.2513C221.521 83.8346 227.041 106.571 229.011 114.298C231.221 122.965 232.963 124.406 236.611 126.268C239.391 127.687 244.952 127.288 244.952 127.288L261.798 63.5679C261.798 63.5679 255.338 62.7541 251.025 66.5541L251.006 66.5573ZM277.356 73.9419C276.428 75.1702 275.248 76.1852 273.895 76.9186C272.35 77.7799 270.868 78.3658 269.278 79.1289C266.612 80.4083 265.89 81.8333 265.89 84.0056V127.262C265.89 127.262 270.142 127.801 272.92 126.382C276.498 124.558 277.353 122.797 277.353 114.874L277.356 73.9419ZM319.333 95.5829L340.715 63.7801C340.715 63.7801 331.69 62.2443 327.225 66.3134C324.984 68.5484 322.956 70.9867 321.167 73.5968L313.301 84.9398C313.187 85.2964 312.964 85.6079 312.662 85.8298C312.361 86.0516 311.997 86.1724 311.623 86.1748C310.853 86.1748 310.175 85.6776 309.944 84.9081L302.1 73.6253C300.311 71.0159 298.285 68.5776 296.043 66.3419C291.609 62.2759 282.553 63.8086 282.553 63.8086L303.934 95.6114L282.606 127.316C282.606 127.316 292.005 128.5 296.47 124.466C298.579 122.391 300.465 120.101 302.097 117.632L309.966 106.289C310.08 105.933 310.304 105.621 310.605 105.399C310.907 105.178 311.27 105.057 311.645 105.054C312.414 105.054 313.092 105.552 313.323 106.321L321.189 117.664C322.899 120.118 324.84 122.405 326.984 124.498C331.417 128.564 340.686 127.348 340.686 127.348L319.362 95.6431" fill="white"/>
</svg>
