<?xml version="1.0" standalone="no"?>
<!DOCTYPE svg PUBLIC "-//W3C//DTD SVG 20010904//EN"
 "http://www.w3.org/TR/2001/REC-SVG-20010904/DTD/svg10.dtd">
<svg version="1.0" xmlns="http://www.w3.org/2000/svg"
 width="535.000000pt" height="535.000000pt" viewBox="0 0 535.000000 535.000000"
 preserveAspectRatio="xMidYMid meet">
<metadata>
Created by potrace 1.14, written by Peter Selinger 2001-2017
</metadata>
<g transform="translate(0.000000,535.000000) scale(0.100000,-0.100000)"
fill="#000000" stroke="none">
<path d="M2890 5269 c-22 -6 -20 -7 13 -8 20 -1 37 3 37 7 0 10 -17 11 -50 1z"/>
<path d="M2950 5270 c0 -5 7 -7 15 -4 8 4 15 8 15 10 0 2 -7 4 -15 4 -8 0 -15
-4 -15 -10z"/>
<path d="M3072 5275 c10 -10 109 -15 103 -5 -3 5 -29 10 -57 10 -28 0 -49 -2
-46 -5z"/>
<path d="M3290 5252 c47 -16 95 -23 84 -12 -5 5 -32 12 -59 15 -34 3 -42 2
-25 -3z"/>
<path d="M2712 5240 c-18 -4 -36 -11 -40 -15 -8 -8 63 4 93 16 l20 8 -20 -1
c-11 0 -35 -4 -53 -8z"/>
<path d="M3505 5199 c22 -10 47 -18 55 -18 19 1 -60 38 -80 37 -8 0 3 -8 25
-19z"/>
<path d="M2523 5182 c-24 -9 -43 -20 -43 -24 0 -8 17 -2 80 26 46 20 17 18
-37 -2z"/>
<path d="M3660 5151 c0 -5 23 -18 50 -29 28 -12 50 -18 50 -14 -1 10 -100 52
-100 43z"/>
<path d="M2347 5104 c-27 -14 -47 -28 -44 -30 6 -7 97 38 97 48 0 10 3 11 -53
-18z"/>
<path d="M3840 5065 c0 -2 23 -16 51 -31 28 -14 48 -21 45 -16 -6 9 -81 52
-91 52 -3 0 -5 -2 -5 -5z"/>
<path d="M2172 5004 c-24 -14 -41 -28 -39 -31 7 -6 87 40 87 50 0 10 0 10 -48
-19z"/>
<path d="M4011 4966 c15 -16 82 -56 92 -56 7 0 -8 14 -33 30 -38 25 -74 41
-59 26z"/>
<path d="M2018 4894 c-35 -22 -56 -44 -43 -44 4 0 23 12 43 27 20 15 39 28 41
30 2 2 2 5 0 7 -2 2 -21 -7 -41 -20z"/>
<path d="M2988 4847 c-27 -10 -38 -25 -38 -53 0 -17 -8 -23 -34 -28 -19 -4
-36 -11 -38 -15 -2 -5 -75 -12 -163 -15 -88 -4 -173 -9 -190 -11 -43 -6 -166
-18 -190 -19 -11 0 -60 7 -110 17 -113 22 -137 25 -259 26 -98 1 -99 1 -81 21
26 28 9 25 -23 -5 -21 -20 -37 -25 -79 -25 -32 0 -57 6 -67 15 -17 17 -36 20
-36 5 0 -6 -34 -10 -83 -10 -96 0 -192 -16 -221 -36 -31 -21 -34 -18 -29 28 5
38 4 41 -11 29 -9 -8 -16 -29 -16 -51 0 -21 -7 -43 -15 -50 -8 -7 -18 -28 -22
-49 -4 -20 -8 -39 -9 -43 -1 -5 -2 -39 -3 -78 l-1 -69 -115 -55 c-298 -142
-567 -341 -721 -533 -22 -26 -41 -50 -44 -53 -14 -12 -107 -160 -133 -210 -16
-30 -35 -64 -42 -75 -24 -38 -86 -187 -120 -288 -35 -106 -69 -256 -82 -367
-15 -127 -7 -495 12 -552 2 -7 6 -31 9 -53 7 -56 41 -207 66 -290 11 -38 23
-79 25 -90 13 -57 113 -318 166 -433 16 -35 29 -67 29 -72 0 -5 -33 -9 -72 -9
-125 1 -134 0 -156 -21 -29 -27 -29 -73 0 -100 20 -18 35 -20 162 -20 l141 0
74 -143 c94 -180 300 -533 353 -605 147 -199 366 -326 630 -367 97 -14 343
-17 413 -4 23 4 59 10 80 12 62 8 191 36 290 63 507 140 1090 447 1650 870 83
62 166 127 185 143 l34 30 440 1 c437 0 440 1 463 22 13 12 23 29 23 39 0 30
-22 68 -43 75 -11 3 -91 6 -179 5 l-158 0 25 25 c15 14 25 33 23 42 -3 15 -23
17 -163 18 -88 1 -162 2 -164 3 -3 0 0 6 6 12 8 8 78 12 215 13 217 2 231 5
266 53 17 25 48 157 67 288 4 22 8 47 10 55 2 8 7 30 10 48 6 39 13 80 19 107
2 11 9 54 16 95 10 57 25 96 62 162 277 491 350 925 223 1313 -9 28 -23 64
-31 82 -19 41 -18 46 11 89 111 163 47 398 -133 486 -61 30 -74 33 -157 32
-64 0 -99 -5 -120 -17 -39 -22 -42 -22 -84 11 -20 15 -44 32 -55 37 -10 6 -24
19 -30 29 -25 45 -66 98 -66 86 0 -7 11 -28 26 -47 14 -18 22 -33 19 -33 -7 0
-48 23 -55 31 -11 13 -222 109 -315 144 -243 92 -546 164 -795 191 -25 3 -54
6 -65 9 -11 2 -26 4 -32 4 -8 1 -13 17 -13 44 0 40 -24 84 -48 88 -34 6 -317
3 -334 -4z"/>
<path d="M4180 4855 c0 -7 55 -56 79 -69 11 -6 10 -2 -4 13 -23 27 -75 65 -75
56z"/>
<path d="M4340 4715 c24 -32 70 -77 70 -68 -1 10 -29 42 -60 68 -25 20 -25 20
-10 0z"/>
<path d="M4500 4540 c18 -23 35 -39 37 -36 6 6 -49 76 -60 76 -5 0 6 -18 23
-40z"/>
<path d="M4274 994 c-190 -64 -395 -217 -489 -364 -56 -88 -75 -140 -75 -208
0 -216 315 -301 575 -155 127 70 245 253 271 416 21 138 -18 280 -89 319 -37
20 -119 17 -193 -8z"/>
</g>
</svg>
